<svg id="Layer_1" data-name="Layer 1" xmlns="http://www.w3.org/2000/svg" viewBox="0 0 216 504"><defs><style>.cls-1{font-size:20px;font-family:TrebuchetMS, Trebuchet MS;}.cls-1,.cls-6{fill:#fff;}.cls-2{letter-spacing:-0.02em;}.cls-3{letter-spacing:-0.13em;}.cls-4{letter-spacing:-0.11em;}.cls-5{font-size:11px;}.cls-7{fill:#699635;}.cls-8{fill:#83bf4f;}.cls-9{fill:#94989b;}.cls-10{fill:#d0d0d0;}.cls-11{fill:#ffce31;}.cls-12{fill:#42ade2;}.cls-13{fill:#3e4347;}.cls-14{fill:#676e72;}.cls-15{fill:#fef500;}.cls-16{fill:#fff7ab;}.cls-17{fill:#962c2c;}.cls-18{fill:#9aabaf;}.cls-19{fill:#b3c0c4;}.cls-20{fill:#c5cfd3;}.cls-21{fill:#d9e3e8;}.cls-22{fill:#ff8736;}.cls-23{fill:#75d6ff;}</style></defs><title>Artboard 1</title><text class="cls-1" transform="translate(4.41 26.28)">ADVISED EMERGENC<tspan class="cls-2" x="176.22" y="0">Y</tspan><tspan x="0" y="24">SUPP</tspan><tspan class="cls-3" x="44.89" y="24">L</tspan><tspan class="cls-2" x="52.43" y="24">Y</tspan><tspan x="63.48" y="24" xml:space="preserve"> KI</tspan><tspan class="cls-4" x="86.58" y="24">T</tspan><tspan x="95.98" y="24">:</tspan><tspan class="cls-5" x="103.32" y="24"> </tspan></text><path class="cls-6" d="M8,62.94l.68-.56h6.48V69.2l-.57.67H8Zm6.34,6.46V63.19H8.45V69.4Z"/><path class="cls-6" d="M22.21,69.76H20.63V61.89l1.94-.06a3.44,3.44,0,0,1,2.61,1,3.66,3.66,0,0,1,1,2.66Q26.14,69.76,22.21,69.76Zm-.51-6.91v5.89a7.28,7.28,0,0,0,.89.05,2.11,2.11,0,0,0,1.78-.85A3.84,3.84,0,0,0,25,65.59c0-1.86-.84-2.79-2.51-2.79Z"/><path class="cls-6" d="M30.42,65a1.13,1.13,0,0,0-.67-.23,1.18,1.18,0,0,0-.95.5,1.84,1.84,0,0,0-.41,1.2v3.3h-1V64h1v.92a1.8,1.8,0,0,1,1.66-1,4.84,4.84,0,0,1,.79.09Z"/><path class="cls-6" d="M32.06,69.76v-4.9h-.79V64h1.81v5.76Zm.56-7.93a.61.61,0,0,1,.45.18.65.65,0,0,1,0,.9.61.61,0,0,1-.45.18.6.6,0,0,1-.44-.18.64.64,0,0,1,0-.9A.64.64,0,0,1,32.62,61.83Z"/><path class="cls-6" d="M38.24,69.76V66.41A2.29,2.29,0,0,0,38,65.12a1.12,1.12,0,0,0-.93-.36,1.51,1.51,0,0,0-.73.21,1.62,1.62,0,0,0-.58.51v4.28h-1V64h.7l.33.75a1.74,1.74,0,0,1,1.64-.85c1.26,0,1.89.76,1.89,2.3v3.56Z"/><path class="cls-6" d="M44.43,69.76l-1.8-2.88-.89.92v2h-1V61.65h1v5L43.94,64h1.19l-1.84,2.19,2.25,3.57Z"/><path class="cls-6" d="M46.76,69.76v-4.9H46V64h1.81v5.76Zm.56-7.93a.6.6,0,0,1,.44.18.63.63,0,0,1,0,.9.6.6,0,0,1-.44.18.63.63,0,0,1-.45-.18.64.64,0,0,1-.18-.45.62.62,0,0,1,.63-.63Z"/><path class="cls-6" d="M52.94,69.76V66.41a2.2,2.2,0,0,0-.28-1.29,1.08,1.08,0,0,0-.92-.36A1.48,1.48,0,0,0,51,65a1.66,1.66,0,0,0-.59.51v4.28h-1V64h.7l.32.75a1.77,1.77,0,0,1,1.65-.85c1.26,0,1.89.76,1.89,2.3v3.56Z"/><path class="cls-6" d="M55.2,71.33l.55-.82a3,3,0,0,0,1.65.6,2.12,2.12,0,0,0,1.09-.24.69.69,0,0,0,.4-.59c0-.47-.34-.7-1-.7a3.86,3.86,0,0,0-.62.09,4.75,4.75,0,0,1-.71.08c-.81,0-1.22-.31-1.22-.92a.68.68,0,0,1,.29-.52,1.87,1.87,0,0,1,.71-.33,2,2,0,0,1-1.22-2,2,2,0,0,1,.63-1.5,2.47,2.47,0,0,1,2.88-.25l.51-.62.67.63-.61.46a2.15,2.15,0,0,1,.39,1.34A2.09,2.09,0,0,1,59,67.52a2.15,2.15,0,0,1-1.43.67l-.84.09a1.43,1.43,0,0,0-.4.12c-.17.06-.26.15-.26.26s.18.22.53.22a4.55,4.55,0,0,0,.72-.09,5.66,5.66,0,0,1,.72-.08,1.94,1.94,0,0,1,1.33.41,1.38,1.38,0,0,1,.47,1.12,1.47,1.47,0,0,1-.71,1.28,3.06,3.06,0,0,1-1.8.49,3.7,3.7,0,0,1-1.18-.2A3.26,3.26,0,0,1,55.2,71.33Zm2.17-6.61a1.1,1.1,0,0,0-.87.37,1.33,1.33,0,0,0-.34.92,1.48,1.48,0,0,0,.33,1,1.06,1.06,0,0,0,.88.4,1,1,0,0,0,.84-.39,1.51,1.51,0,0,0,.31-1,1.37,1.37,0,0,0-.33-.92A1.05,1.05,0,0,0,57.37,64.72Z"/><path class="cls-6" d="M69.56,69.86h-.27L67.61,66l-1.68,3.91h-.27L63.6,64h1.09l1.23,3.77L67.45,64h.27l1.58,3.77L70.62,64h1Z"/><path class="cls-6" d="M75.68,69.1a2.25,2.25,0,0,1-1.87.76,1.6,1.6,0,0,1-1.18-.49,1.64,1.64,0,0,1-.49-1.22,1.82,1.82,0,0,1,.76-1.48,3.06,3.06,0,0,1,1.95-.6,2.08,2.08,0,0,1,.73.14c0-.93-.41-1.4-1.24-1.4a2,2,0,0,0-1.47.52l-.43-.86a2.39,2.39,0,0,1,.8-.4,2.93,2.93,0,0,1,1-.17,2.5,2.5,0,0,1,1.82.57,2.47,2.47,0,0,1,.56,1.81v2.06a1,1,0,0,0,.46,1v.51a1.93,1.93,0,0,1-.94-.18A1,1,0,0,1,75.68,69.1Zm-.1-2.17a3.83,3.83,0,0,0-.67-.11,1.94,1.94,0,0,0-1.26.4,1.18,1.18,0,0,0-.49.94q0,.9,1,.9a1.73,1.73,0,0,0,1.37-.74Z"/><path class="cls-6" d="M78.58,64.81h-.67V64h.67V62.8l1-.39V64h1.58v.81H79.6v2.86a1.72,1.72,0,0,0,.24,1,1,1,0,0,0,.79.3,1.91,1.91,0,0,0,.81-.19l.15.89a5.53,5.53,0,0,1-1.39.16,1.48,1.48,0,0,1-1.15-.5,1.79,1.79,0,0,1-.47-1.28Z"/><path class="cls-6" d="M87.42,67H83.27a2.07,2.07,0,0,0,.55,1.55,1.73,1.73,0,0,0,1.26.47,2.15,2.15,0,0,0,1.46-.51l.43.74a2,2,0,0,1-.72.41,4,4,0,0,1-1.37.22A2.53,2.53,0,0,1,83,69.13,2.89,2.89,0,0,1,82.2,67a3,3,0,0,1,.86-2.28,2.5,2.5,0,0,1,1.83-.77,2.64,2.64,0,0,1,1.93.69,2.37,2.37,0,0,1,.68,1.77A2.45,2.45,0,0,1,87.42,67Zm-2.48-2.22a1.61,1.61,0,0,0-1.64,1.48h3.18a1.47,1.47,0,0,0-.38-1A1.53,1.53,0,0,0,84.94,64.76Z"/><path class="cls-6" d="M91.7,65a1.13,1.13,0,0,0-.67-.23,1.17,1.17,0,0,0-1,.5,1.84,1.84,0,0,0-.41,1.2v3.3h-1V64h1v.92a1.79,1.79,0,0,1,1.66-1,5,5,0,0,1,.79.09Z"/><path class="cls-6" d="M95.94,66.9v-.52h2.79v.52Z"/><path class="cls-6" d="M104.67,62.85V65h2.77V66h-2.77v3.81h-1.08V61.89h4.87v1Z"/><path class="cls-6" d="M109.78,69.76v-4.9H109V64h1.81v5.76Zm.56-7.93a.61.61,0,0,1,.45.18.65.65,0,0,1,0,.9.61.61,0,0,1-.45.18.6.6,0,0,1-.44-.18.64.64,0,0,1,0-.9A.64.64,0,0,1,110.34,61.83Z"/><path class="cls-6" d="M112.5,68.13V61.65h1V68a.9.9,0,0,0,1,1v.91C113.17,69.86,112.5,69.29,112.5,68.13Z"/><path class="cls-6" d="M115.75,68.13V61.65h1V68a1,1,0,0,0,.27.73.94.94,0,0,0,.69.26v.91C116.41,69.86,115.75,69.29,115.75,68.13Z"/><path class="cls-6" d="M126.57,64.47l-.51.72a1.52,1.52,0,0,0-.55-.29,2.13,2.13,0,0,0-.77-.14,1.64,1.64,0,0,0-1.33.58,2.44,2.44,0,0,0-.48,1.6,2.19,2.19,0,0,0,.49,1.54,1.84,1.84,0,0,0,1.39.52,2.27,2.27,0,0,0,1.39-.53l.4.86a3.64,3.64,0,0,1-2,.53,2.58,2.58,0,0,1-1.94-.79,2.91,2.91,0,0,1-.77-2.13,3.06,3.06,0,0,1,.8-2.21,2.86,2.86,0,0,1,2.18-.83,3.25,3.25,0,0,1,1.74.57Z"/><path class="cls-6" d="M127.75,68.13V61.65h1V68a.91.91,0,0,0,1,1v.91C128.42,69.86,127.75,69.29,127.75,68.13Z"/><path class="cls-6" d="M135.76,67h-4.14a2.07,2.07,0,0,0,.55,1.55,1.71,1.71,0,0,0,1.26.47,2.15,2.15,0,0,0,1.46-.51l.43.74a2,2,0,0,1-.73.41,3.92,3.92,0,0,1-1.36.22,2.56,2.56,0,0,1-1.85-.73,2.89,2.89,0,0,1-.84-2.18,3.05,3.05,0,0,1,.87-2.28,2.46,2.46,0,0,1,1.83-.77,2.64,2.64,0,0,1,1.93.69,2.36,2.36,0,0,1,.67,1.77A2.07,2.07,0,0,1,135.76,67Zm-2.47-2.22a1.58,1.58,0,0,0-1.15.44,1.61,1.61,0,0,0-.5,1h3.19a1.44,1.44,0,0,0-.39-1A1.51,1.51,0,0,0,133.29,64.76Z"/><path class="cls-6" d="M140.17,69.1a2.27,2.27,0,0,1-1.88.76,1.59,1.59,0,0,1-1.17-.49,1.65,1.65,0,0,1-.5-1.22,1.83,1.83,0,0,1,.77-1.48,3.06,3.06,0,0,1,2-.6,2.12,2.12,0,0,1,.73.14c0-.93-.42-1.4-1.25-1.4a2,2,0,0,0-1.47.52l-.43-.86a2.49,2.49,0,0,1,.8-.4,3,3,0,0,1,1-.17,2.05,2.05,0,0,1,2.38,2.38v2.06a1.06,1.06,0,0,0,.45,1v.51a1.91,1.91,0,0,1-.93-.18A1,1,0,0,1,140.17,69.1Zm-.1-2.17a3.9,3.9,0,0,0-.68-.11,2,2,0,0,0-1.26.4,1.18,1.18,0,0,0-.49.94c0,.6.35.9,1.06.9a1.76,1.76,0,0,0,1.37-.74Z"/><path class="cls-6" d="M146.24,69.76V66.41a2.28,2.28,0,0,0-.28-1.29,1.1,1.1,0,0,0-.93-.36,1.54,1.54,0,0,0-.73.21,1.62,1.62,0,0,0-.58.51v4.28h-1V64h.69l.33.75a1.75,1.75,0,0,1,1.65-.85c1.26,0,1.89.76,1.89,2.3v3.56Z"/><path class="cls-6" d="M25.48,80.47l-.51.72a1.43,1.43,0,0,0-.55-.29,2.13,2.13,0,0,0-.77-.14,1.61,1.61,0,0,0-1.32.58,2.39,2.39,0,0,0-.49,1.6,2.15,2.15,0,0,0,.5,1.54,1.8,1.8,0,0,0,1.38.52,2.27,2.27,0,0,0,1.39-.53l.4.86a3.63,3.63,0,0,1-2,.53,2.59,2.59,0,0,1-1.95-.79,2.91,2.91,0,0,1-.77-2.13,3.06,3.06,0,0,1,.8-2.21,2.86,2.86,0,0,1,2.18-.83,3.25,3.25,0,0,1,1.74.57Z"/><path class="cls-6" d="M26.21,82.87a3.12,3.12,0,0,1,.72-2.15,2.35,2.35,0,0,1,1.88-.82,2.4,2.4,0,0,1,1.92.78,3.84,3.84,0,0,1,0,4.38,2.39,2.39,0,0,1-1.91.8,2.35,2.35,0,0,1-1.91-.81A3.26,3.26,0,0,1,26.21,82.87Zm1.07,0q0,2.16,1.53,2.16a1.28,1.28,0,0,0,1.12-.58,2.72,2.72,0,0,0,.41-1.58c0-1.43-.51-2.14-1.53-2.14a1.31,1.31,0,0,0-1.11.57A2.59,2.59,0,0,0,27.28,82.87Z"/><path class="cls-6" d="M36,85.76V82.41a2.2,2.2,0,0,0-.28-1.29,1.09,1.09,0,0,0-.93-.36,1.54,1.54,0,0,0-.73.21,1.62,1.62,0,0,0-.58.51v4.28h-1V80h.7l.32.75a1.75,1.75,0,0,1,1.65-.85c1.26,0,1.89.76,1.89,2.3v3.56Z"/><path class="cls-6" d="M38.86,80.81H38.2V80h.66V78.8l1-.39V80h1.58v.81H39.88v2.86a1.71,1.71,0,0,0,.25,1,1,1,0,0,0,.79.3,1.91,1.91,0,0,0,.81-.19l.15.89a5.58,5.58,0,0,1-1.39.16,1.52,1.52,0,0,1-1.16-.5,1.84,1.84,0,0,1-.47-1.28Z"/><path class="cls-6" d="M46.11,85.1a2.26,2.26,0,0,1-1.88.76,1.59,1.59,0,0,1-1.17-.49,1.65,1.65,0,0,1-.5-1.22,1.83,1.83,0,0,1,.77-1.48,3.06,3.06,0,0,1,2-.6,2.08,2.08,0,0,1,.73.14c0-.93-.41-1.4-1.24-1.4a2,2,0,0,0-1.48.52l-.43-.86a2.55,2.55,0,0,1,.81-.4,2.93,2.93,0,0,1,1-.17A2,2,0,0,1,47,82.28v2.06a1.06,1.06,0,0,0,.45,1v.51a1.91,1.91,0,0,1-.93-.18A1,1,0,0,1,46.11,85.1ZM46,82.93a4,4,0,0,0-.67-.11,2,2,0,0,0-1.27.4,1.21,1.21,0,0,0-.49.94c0,.6.36.9,1.06.9A1.74,1.74,0,0,0,46,84.32Z"/><path class="cls-6" d="M49.13,85.76v-4.9h-.79V80h1.81v5.76Zm.56-7.93a.61.61,0,0,1,.45.18.63.63,0,0,1,0,.9.61.61,0,0,1-.45.18.6.6,0,0,1-.44-.18.61.61,0,0,1-.19-.45.58.58,0,0,1,.19-.45A.6.6,0,0,1,49.69,77.83Z"/><path class="cls-6" d="M55.31,85.76V82.41A2.29,2.29,0,0,0,55,81.12a1.12,1.12,0,0,0-.93-.36,1.54,1.54,0,0,0-.73.21,1.62,1.62,0,0,0-.58.51v4.28h-1V80h.69l.33.75a1.74,1.74,0,0,1,1.64-.85c1.27,0,1.9.76,1.9,2.3v3.56Z"/><path class="cls-6" d="M62.63,83H58.48A2.07,2.07,0,0,0,59,84.53a1.69,1.69,0,0,0,1.25.47,2.13,2.13,0,0,0,1.46-.51l.43.74a1.84,1.84,0,0,1-.72.41,3.92,3.92,0,0,1-1.36.22,2.56,2.56,0,0,1-1.85-.73A2.89,2.89,0,0,1,57.41,83a3.08,3.08,0,0,1,.86-2.28,2.5,2.5,0,0,1,1.84-.77,2.6,2.6,0,0,1,1.92.69,2.33,2.33,0,0,1,.68,1.77A2.45,2.45,0,0,1,62.63,83Zm-2.48-2.22A1.57,1.57,0,0,0,59,81.2a1.61,1.61,0,0,0-.5,1H61.7a1.44,1.44,0,0,0-.39-1A1.51,1.51,0,0,0,60.15,80.76Z"/><path class="cls-6" d="M66.91,81a1.11,1.11,0,0,0-.67-.23,1.18,1.18,0,0,0-.95.5,1.83,1.83,0,0,0-.4,1.2v3.3h-1V80h1v.92a1.78,1.78,0,0,1,1.66-1,5.08,5.08,0,0,1,.79.09Z"/><path class="cls-6" d="M67.68,85.41l.36-1a2.77,2.77,0,0,0,1.38.55c.63,0,.94-.26.94-.79,0-.38-.3-.71-.91-1a7.46,7.46,0,0,1-1-.49,2.14,2.14,0,0,1-.42-.37,1.68,1.68,0,0,1-.27-.46,1.44,1.44,0,0,1-.09-.51,1.32,1.32,0,0,1,.52-1.11,2.16,2.16,0,0,1,1.35-.39,4.44,4.44,0,0,1,1.58.39l-.29.95a2,2,0,0,0-1.22-.48,1,1,0,0,0-.61.17.5.5,0,0,0-.25.43.91.91,0,0,0,.62.84l.74.33a2.64,2.64,0,0,1,1,.7,1.52,1.52,0,0,1,.31,1,1.49,1.49,0,0,1-.54,1.21,2.38,2.38,0,0,1-1.51.43A3.47,3.47,0,0,1,67.68,85.41Z"/><path class="cls-6" d="M73.69,84.25a.81.81,0,0,1,.57.23.81.81,0,0,1,0,1.15.82.82,0,0,1-1.14,0,.81.81,0,0,1,0-1.15A.81.81,0,0,1,73.69,84.25Z"/><path class="cls-6" d="M8,94.94l.67-.56h6.49v6.82l-.58.67H8Zm6.33,6.46V95.19H8.43v6.21Z"/><path class="cls-6" d="M21.68,94.85V97h2.76V98H21.68v3.81H20.6V93.89h4.86v1Z"/><path class="cls-6" d="M25.92,98.87a3.12,3.12,0,0,1,.72-2.15,2.66,2.66,0,0,1,3.8,0,3.8,3.8,0,0,1,0,4.38,2.67,2.67,0,0,1-3.82,0A3.26,3.26,0,0,1,25.92,98.87Zm1.08,0Q27,101,28.53,101a1.29,1.29,0,0,0,1.12-.58,2.72,2.72,0,0,0,.4-1.58c0-1.43-.51-2.14-1.52-2.14a1.32,1.32,0,0,0-1.12.57A2.59,2.59,0,0,0,27,98.87Z"/><path class="cls-6" d="M31.82,98.87a3.12,3.12,0,0,1,.72-2.15,2.38,2.38,0,0,1,1.89-.82,2.43,2.43,0,0,1,1.92.78A3.28,3.28,0,0,1,37,98.87a3.2,3.2,0,0,1-.7,2.19,2.67,2.67,0,0,1-3.82,0A3.26,3.26,0,0,1,31.82,98.87Zm1.08,0q0,2.16,1.53,2.16a1.29,1.29,0,0,0,1.12-.58,2.72,2.72,0,0,0,.4-1.58c0-1.43-.5-2.14-1.52-2.14a1.32,1.32,0,0,0-1.12.57A2.66,2.66,0,0,0,32.9,98.87Z"/><path class="cls-6" d="M41.75,101.75v-.42a2.11,2.11,0,0,1-1.55.53,2.22,2.22,0,0,1-1.75-.77A3.05,3.05,0,0,1,37.78,99a3.34,3.34,0,0,1,.77-2.21,2.35,2.35,0,0,1,1.85-.91,2,2,0,0,1,1.35.42V93.65h1v8.1Zm0-4.41a1.2,1.2,0,0,0-1.06-.58,1.64,1.64,0,0,0-1.33.61,2.36,2.36,0,0,0-.51,1.56c0,1.38.63,2.07,1.9,2.07a1.5,1.5,0,0,0,.58-.15.88.88,0,0,0,.42-.32Z"/><path class="cls-6" d="M47.91,96.81h-.67V96h.67V94.8l1-.39V96h1.58v.81H48.93v2.86a1.64,1.64,0,0,0,.25,1,.94.94,0,0,0,.78.3,1.91,1.91,0,0,0,.81-.19l.15.89a5.47,5.47,0,0,1-1.39.16,1.49,1.49,0,0,1-1.15-.5,1.84,1.84,0,0,1-.47-1.28Z"/><path class="cls-6" d="M55.45,101.76V98.14a1.44,1.44,0,0,0-.32-1,1.09,1.09,0,0,0-.89-.37,1.52,1.52,0,0,0-.74.21,1.79,1.79,0,0,0-.57.51v4.28h-1V93.65h1v3a1.47,1.47,0,0,1,.65-.53,2.25,2.25,0,0,1,.94-.21,1.78,1.78,0,0,1,1.43.6,2.41,2.41,0,0,1,.52,1.64v3.62Z"/><path class="cls-6" d="M61.17,101.1a2.27,2.27,0,0,1-1.88.76,1.59,1.59,0,0,1-1.17-.49,1.65,1.65,0,0,1-.5-1.22,1.83,1.83,0,0,1,.77-1.48,3.06,3.06,0,0,1,2-.6,2.12,2.12,0,0,1,.73.14c0-.93-.42-1.4-1.25-1.4a2,2,0,0,0-1.47.52l-.43-.86a2.49,2.49,0,0,1,.8-.4,3,3,0,0,1,1-.17,2.05,2.05,0,0,1,2.38,2.38v2.06a1.06,1.06,0,0,0,.45,1v.51a1.89,1.89,0,0,1-.93-.18A1,1,0,0,1,61.17,101.1Zm-.1-2.17a3.9,3.9,0,0,0-.68-.11,2,2,0,0,0-1.26.4,1.18,1.18,0,0,0-.49.94c0,.6.35.9,1.06.9a1.74,1.74,0,0,0,1.37-.74Z"/><path class="cls-6" d="M64.06,96.81H63.4V96h.66V94.8l1-.39V96h1.58v.81H65.08v2.86a1.64,1.64,0,0,0,.25,1,.94.94,0,0,0,.78.3,1.91,1.91,0,0,0,.81-.19l.15.89a5.47,5.47,0,0,1-1.39.16,1.49,1.49,0,0,1-1.15-.5,1.84,1.84,0,0,1-.47-1.28Z"/><path class="cls-6" d="M74.5,97a1.15,1.15,0,0,0-.67-.23,1.17,1.17,0,0,0-1,.5,1.84,1.84,0,0,0-.41,1.2v3.3h-1V96h1v.92a1.79,1.79,0,0,1,1.66-1,5,5,0,0,1,.79.09Z"/><path class="cls-6" d="M80.49,99H76.34a2.07,2.07,0,0,0,.56,1.55,1.69,1.69,0,0,0,1.25.47,2.16,2.16,0,0,0,1.47-.51l.43.74a2,2,0,0,1-.73.41,3.92,3.92,0,0,1-1.36.22,2.56,2.56,0,0,1-1.85-.73A2.89,2.89,0,0,1,75.27,99a3.05,3.05,0,0,1,.87-2.28A2.46,2.46,0,0,1,78,95.9a2.64,2.64,0,0,1,1.93.69,2.36,2.36,0,0,1,.67,1.77A2.45,2.45,0,0,1,80.49,99ZM78,96.76a1.58,1.58,0,0,0-1.15.44,1.61,1.61,0,0,0-.5,1h3.19a1.44,1.44,0,0,0-.39-1A1.51,1.51,0,0,0,78,96.76Z"/><path class="cls-6" d="M85.33,104v-2.59a2,2,0,0,1-1.49.44,2.31,2.31,0,0,1-1.85-.78,3.31,3.31,0,0,1-.67-2.19,3,3,0,0,1,.77-2.18,2.59,2.59,0,0,1,2-.81,2.14,2.14,0,0,1,1.4.54l.27-.44h.62v8Zm0-6.81a1.46,1.46,0,0,0-1.1-.44,1.64,1.64,0,0,0-1.35.58,2.37,2.37,0,0,0-.48,1.55,2.31,2.31,0,0,0,.48,1.56,1.64,1.64,0,0,0,1.31.55,1.61,1.61,0,0,0,1.14-.37Z"/><path class="cls-6" d="M88.74,96v3.67c0,.89.39,1.33,1.16,1.33a1.55,1.55,0,0,0,.92-.29,1.34,1.34,0,0,0,.55-.67V96h1v5.76h-1V101a1.52,1.52,0,0,1-.69.62,2.06,2.06,0,0,1-1,.28,1.89,1.89,0,0,1-1.45-.54,2.19,2.19,0,0,1-.5-1.54V96Z"/><path class="cls-6" d="M94.28,101.76v-4.9h-.79V96H95.3v5.76Zm.56-7.93a.64.64,0,1,1-.63.63.62.62,0,0,1,.63-.63Z"/><path class="cls-6" d="M100.05,97a1.13,1.13,0,0,0-.67-.23,1.17,1.17,0,0,0-.95.5,1.84,1.84,0,0,0-.41,1.2v3.3H97V96h1v.92a1.8,1.8,0,0,1,1.66-1,5,5,0,0,1,.79.09Z"/><path class="cls-6" d="M106,99H101.9a2.07,2.07,0,0,0,.55,1.55,1.7,1.7,0,0,0,1.26.47,2.15,2.15,0,0,0,1.46-.51l.43.74a2,2,0,0,1-.73.41,3.92,3.92,0,0,1-1.36.22,2.56,2.56,0,0,1-1.85-.73,2.89,2.89,0,0,1-.84-2.18,3.05,3.05,0,0,1,.87-2.28,2.46,2.46,0,0,1,1.83-.77,2.64,2.64,0,0,1,1.93.69,2.36,2.36,0,0,1,.67,1.77A2.45,2.45,0,0,1,106,99Zm-2.47-2.22a1.58,1.58,0,0,0-1.15.44,1.61,1.61,0,0,0-.5,1h3.19a1.44,1.44,0,0,0-.39-1A1.51,1.51,0,0,0,103.57,96.76Z"/><path class="cls-6" d="M106.82,101.41l.36-1a2.78,2.78,0,0,0,1.37.55c.63,0,1-.26,1-.79,0-.38-.3-.71-.91-1a6.8,6.8,0,0,1-1-.49,2.21,2.21,0,0,1-.43-.37,1.42,1.42,0,0,1-.26-.46,1.44,1.44,0,0,1-.09-.51,1.34,1.34,0,0,1,.51-1.11,2.2,2.2,0,0,1,1.35-.39,4.43,4.43,0,0,1,1.59.39l-.29.95a2,2,0,0,0-1.22-.48,1,1,0,0,0-.62.17.5.5,0,0,0-.25.43.91.91,0,0,0,.63.84l.73.33a2.69,2.69,0,0,1,1,.7,1.58,1.58,0,0,1,.3,1,1.49,1.49,0,0,1-.54,1.21,2.33,2.33,0,0,1-1.5.43A3.41,3.41,0,0,1,106.82,101.41Z"/><path class="cls-6" d="M118.5,101.76V98.41a2.29,2.29,0,0,0-.27-1.29,1.12,1.12,0,0,0-.93-.36,1.51,1.51,0,0,0-.73.21,1.75,1.75,0,0,0-.59.51v4.28h-1V96h.7l.32.75a1.77,1.77,0,0,1,1.65-.85c1.26,0,1.89.76,1.89,2.3v3.56Z"/><path class="cls-6" d="M120.6,98.87a3.17,3.17,0,0,1,.71-2.15,2.67,2.67,0,0,1,3.81,0,3.28,3.28,0,0,1,.68,2.19,3.2,3.2,0,0,1-.7,2.19,2.66,2.66,0,0,1-3.81,0A3.26,3.26,0,0,1,120.6,98.87Zm1.07,0q0,2.16,1.53,2.16a1.28,1.28,0,0,0,1.12-.58,2.72,2.72,0,0,0,.41-1.58c0-1.43-.51-2.14-1.53-2.14a1.31,1.31,0,0,0-1.11.57A2.59,2.59,0,0,0,121.67,98.87Z"/><path class="cls-6" d="M20.93,113a1.13,1.13,0,0,0-.67-.23,1.17,1.17,0,0,0-1,.5,1.84,1.84,0,0,0-.41,1.2v3.3h-1V112h1v.92a1.79,1.79,0,0,1,1.66-1,5,5,0,0,1,.79.09Z"/><path class="cls-6" d="M26.92,115H22.77a2.07,2.07,0,0,0,.56,1.55,1.69,1.69,0,0,0,1.25.47,2.16,2.16,0,0,0,1.47-.51l.43.74a2,2,0,0,1-.73.41,3.92,3.92,0,0,1-1.36.22,2.56,2.56,0,0,1-1.85-.73A2.89,2.89,0,0,1,21.7,115a3.05,3.05,0,0,1,.87-2.28,2.46,2.46,0,0,1,1.83-.77,2.64,2.64,0,0,1,1.93.69,2.36,2.36,0,0,1,.67,1.77A2.07,2.07,0,0,1,26.92,115Zm-2.47-2.22a1.58,1.58,0,0,0-1.15.44,1.61,1.61,0,0,0-.5,1H26a1.44,1.44,0,0,0-.39-1A1.51,1.51,0,0,0,24.45,112.76Z"/><path class="cls-6" d="M31.19,110.56a1.85,1.85,0,0,0-.58-.11,1,1,0,0,0-.77.36,1.27,1.27,0,0,0-.31.89,1.53,1.53,0,0,0,0,.3h1.17v.86H29.56v4.9h-1v-4.9H27.7V112h.84a2.58,2.58,0,0,1,.54-1.73,1.82,1.82,0,0,1,1.43-.62,3.11,3.11,0,0,1,1,.16Z"/><path class="cls-6" d="M35.27,113a1.13,1.13,0,0,0-.67-.23,1.17,1.17,0,0,0-1,.5,1.84,1.84,0,0,0-.41,1.2v3.3h-1V112h1v.92a1.8,1.8,0,0,1,1.66-1,4.84,4.84,0,0,1,.79.09Z"/><path class="cls-6" d="M36.91,117.76v-4.9h-.79V112h1.81v5.76Zm.56-7.93a.63.63,0,0,1,.45.18.65.65,0,0,1,0,.9.63.63,0,0,1-.45.18.6.6,0,0,1-.44-.18.64.64,0,0,1,0-.9A.63.63,0,0,1,37.47,109.83Z"/><path class="cls-6" d="M39.34,119.33l.56-.82a3,3,0,0,0,1.64.6,2.1,2.1,0,0,0,1.09-.24.69.69,0,0,0,.4-.59c0-.47-.33-.7-1-.7a3.86,3.86,0,0,0-.62.09,4.65,4.65,0,0,1-.7.08c-.82,0-1.23-.31-1.23-.92a.68.68,0,0,1,.29-.52,1.87,1.87,0,0,1,.71-.33,2,2,0,0,1-1.21-2,2,2,0,0,1,.63-1.5,2.46,2.46,0,0,1,2.88-.25l.51-.62.66.63-.61.46a2.15,2.15,0,0,1,.39,1.34,2.09,2.09,0,0,1-.54,1.46,2.12,2.12,0,0,1-1.42.67l-.85.09a1.53,1.53,0,0,0-.4.12c-.17.06-.25.15-.25.26s.17.22.52.22a4.3,4.3,0,0,0,.72-.09,5.59,5.59,0,0,1,.73-.08,1.92,1.92,0,0,1,1.32.41,1.38,1.38,0,0,1,.48,1.12,1.49,1.49,0,0,1-.71,1.28,3.11,3.11,0,0,1-1.81.49,3.6,3.6,0,0,1-1.17-.2A3.45,3.45,0,0,1,39.34,119.33Zm2.17-6.61a1.11,1.11,0,0,0-.87.37,1.37,1.37,0,0,0-.33.92,1.47,1.47,0,0,0,.32,1,1.07,1.07,0,0,0,.88.4,1,1,0,0,0,.85-.39,1.57,1.57,0,0,0,.3-1,1.37,1.37,0,0,0-.33-.92A1,1,0,0,0,41.51,112.72Z"/><path class="cls-6" d="M49.92,115H45.77a2.07,2.07,0,0,0,.56,1.55,1.69,1.69,0,0,0,1.25.47,2.13,2.13,0,0,0,1.46-.51l.43.74a1.84,1.84,0,0,1-.72.41,3.92,3.92,0,0,1-1.36.22,2.56,2.56,0,0,1-1.85-.73A2.89,2.89,0,0,1,44.7,115a3.08,3.08,0,0,1,.86-2.28,2.5,2.5,0,0,1,1.84-.77,2.6,2.6,0,0,1,1.92.69,2.33,2.33,0,0,1,.68,1.77A2.45,2.45,0,0,1,49.92,115Zm-2.48-2.22a1.57,1.57,0,0,0-1.14.44,1.61,1.61,0,0,0-.5,1H49a1.44,1.44,0,0,0-.39-1A1.51,1.51,0,0,0,47.44,112.76Z"/><path class="cls-6" d="M54.2,113a1.11,1.11,0,0,0-.67-.23,1.18,1.18,0,0,0-1,.5,1.83,1.83,0,0,0-.4,1.2v3.3h-1V112h1v.92a1.78,1.78,0,0,1,1.66-1,5.08,5.08,0,0,1,.79.09Z"/><path class="cls-6" d="M58.6,117.1a2.25,2.25,0,0,1-1.87.76,1.6,1.6,0,0,1-1.18-.49,1.64,1.64,0,0,1-.49-1.22,1.82,1.82,0,0,1,.76-1.48,3.06,3.06,0,0,1,2-.6,2.08,2.08,0,0,1,.73.14c0-.93-.41-1.4-1.24-1.4a2,2,0,0,0-1.47.52l-.43-.86a2.39,2.39,0,0,1,.8-.4,2.93,2.93,0,0,1,1-.17,2,2,0,0,1,2.38,2.38v2.06a1,1,0,0,0,.46,1v.51a1.93,1.93,0,0,1-.94-.18A1,1,0,0,1,58.6,117.1Zm-.1-2.17a3.83,3.83,0,0,0-.67-.11,2,2,0,0,0-1.27.4,1.2,1.2,0,0,0-.48.94q0,.9,1.05.9a1.73,1.73,0,0,0,1.37-.74Z"/><path class="cls-6" d="M61.5,112.81h-.67V112h.67v-1.2l1-.39V112h1.57v.81H62.52v2.86a1.72,1.72,0,0,0,.24,1,1,1,0,0,0,.79.3,1.91,1.91,0,0,0,.81-.19l.15.89a5.53,5.53,0,0,1-1.39.16,1.48,1.48,0,0,1-1.15-.5,1.79,1.79,0,0,1-.47-1.28Z"/><path class="cls-6" d="M66,117.76v-4.9H65.2V112H67v5.76Zm.55-7.93a.63.63,0,1,1,0,1.26.6.6,0,0,1-.44-.18.64.64,0,0,1-.18-.45.61.61,0,0,1,.18-.45A.6.6,0,0,1,66.54,109.83Z"/><path class="cls-6" d="M68.25,114.87a3.12,3.12,0,0,1,.72-2.15,2.66,2.66,0,0,1,3.8,0,3.8,3.8,0,0,1,0,4.38,2.67,2.67,0,0,1-3.82,0A3.26,3.26,0,0,1,68.25,114.87Zm1.08,0q0,2.16,1.53,2.16a1.29,1.29,0,0,0,1.12-.58,2.72,2.72,0,0,0,.4-1.58c0-1.43-.51-2.14-1.52-2.14a1.32,1.32,0,0,0-1.12.57A2.59,2.59,0,0,0,69.33,114.87Z"/><path class="cls-6" d="M78.07,117.76v-3.35a2.2,2.2,0,0,0-.28-1.29,1.08,1.08,0,0,0-.92-.36,1.48,1.48,0,0,0-.73.21,1.66,1.66,0,0,0-.59.51v4.28h-1V112h.7l.32.75a1.77,1.77,0,0,1,1.65-.85c1.26,0,1.89.76,1.89,2.3v3.56Z"/><path class="cls-6" d="M83.48,114.87a3.12,3.12,0,0,1,.72-2.15,2.35,2.35,0,0,1,1.88-.82,2.4,2.4,0,0,1,1.92.78,3.84,3.84,0,0,1,0,4.38,2.67,2.67,0,0,1-3.82,0A3.26,3.26,0,0,1,83.48,114.87Zm1.07,0q0,2.16,1.53,2.16a1.28,1.28,0,0,0,1.12-.58,2.72,2.72,0,0,0,.41-1.58c0-1.43-.51-2.14-1.53-2.14a1.31,1.31,0,0,0-1.11.57A2.59,2.59,0,0,0,84.55,114.87Z"/><path class="cls-6" d="M92.88,113a1.11,1.11,0,0,0-.67-.23,1.18,1.18,0,0,0-.95.5,1.83,1.83,0,0,0-.4,1.2v3.3h-1V112h1v.92a1.78,1.78,0,0,1,1.66-1,5.08,5.08,0,0,1,.79.09Z"/><path class="cls-6" d="M101.69,112.47l-.51.72a1.52,1.52,0,0,0-.55-.29,2.13,2.13,0,0,0-.77-.14,1.64,1.64,0,0,0-1.33.58,2.44,2.44,0,0,0-.48,1.6,2.19,2.19,0,0,0,.49,1.54,1.84,1.84,0,0,0,1.39.52,2.27,2.27,0,0,0,1.39-.53l.4.86a3.64,3.64,0,0,1-2,.53,2.58,2.58,0,0,1-1.94-.79,2.91,2.91,0,0,1-.77-2.13,3.06,3.06,0,0,1,.8-2.21,2.86,2.86,0,0,1,2.18-.83,3.25,3.25,0,0,1,1.74.57Z"/><path class="cls-6" d="M102.42,114.87a3.17,3.17,0,0,1,.71-2.15,2.67,2.67,0,0,1,3.81,0,3.28,3.28,0,0,1,.68,2.19,3.2,3.2,0,0,1-.7,2.19,2.67,2.67,0,0,1-3.82,0A3.31,3.31,0,0,1,102.42,114.87Zm1.07,0q0,2.16,1.53,2.16a1.28,1.28,0,0,0,1.12-.58,2.72,2.72,0,0,0,.41-1.58c0-1.43-.51-2.14-1.53-2.14a1.31,1.31,0,0,0-1.11.57A2.59,2.59,0,0,0,103.49,114.87Z"/><path class="cls-6" d="M108.32,114.87a3.12,3.12,0,0,1,.72-2.15,2.35,2.35,0,0,1,1.88-.82,2.4,2.4,0,0,1,1.92.78,3.84,3.84,0,0,1,0,4.38,2.67,2.67,0,0,1-3.82,0A3.26,3.26,0,0,1,108.32,114.87Zm1.07,0q0,2.16,1.53,2.16a1.28,1.28,0,0,0,1.12-.58,2.64,2.64,0,0,0,.41-1.58c0-1.43-.51-2.14-1.53-2.14a1.31,1.31,0,0,0-1.11.57A2.59,2.59,0,0,0,109.39,114.87Z"/><path class="cls-6" d="M118.31,117.76l-1.8-2.88-.89.92v2h-1v-8.11h1v5l2.2-2.68H119l-1.84,2.19,2.25,3.57Z"/><path class="cls-6" d="M120.64,117.76v-4.9h-.79V112h1.81v5.76Zm.56-7.93a.63.63,0,0,1,.45.18.65.65,0,0,1,0,.9.63.63,0,0,1-.45.18.6.6,0,0,1-.44-.18.64.64,0,0,1,0-.9A.63.63,0,0,1,121.2,109.83Z"/><path class="cls-6" d="M126.82,117.76v-3.35a2.29,2.29,0,0,0-.27-1.29,1.12,1.12,0,0,0-.93-.36,1.51,1.51,0,0,0-.73.21,1.75,1.75,0,0,0-.59.51v4.28h-1V112h.7l.32.75a1.77,1.77,0,0,1,1.65-.85c1.26,0,1.89.76,1.89,2.3v3.56Z"/><path class="cls-6" d="M129.08,119.33l.56-.82a3,3,0,0,0,1.64.6,2.1,2.1,0,0,0,1.09-.24.69.69,0,0,0,.4-.59c0-.47-.33-.7-1-.7a3.86,3.86,0,0,0-.62.09,4.65,4.65,0,0,1-.7.08c-.82,0-1.23-.31-1.23-.92a.68.68,0,0,1,.29-.52,1.87,1.87,0,0,1,.71-.33,2,2,0,0,1-1.21-2,2,2,0,0,1,.63-1.5,2.13,2.13,0,0,1,1.55-.6,2.19,2.19,0,0,1,1.33.35l.51-.62.66.63-.61.46a2.15,2.15,0,0,1,.39,1.34,2.09,2.09,0,0,1-.54,1.46,2.12,2.12,0,0,1-1.42.67l-.85.09a1.53,1.53,0,0,0-.4.12c-.17.06-.25.15-.25.26s.17.22.52.22a4.3,4.3,0,0,0,.72-.09,5.59,5.59,0,0,1,.73-.08,1.92,1.92,0,0,1,1.32.41,1.38,1.38,0,0,1,.48,1.12,1.49,1.49,0,0,1-.71,1.28,3.11,3.11,0,0,1-1.81.49,3.6,3.6,0,0,1-1.17-.2A3.33,3.33,0,0,1,129.08,119.33Zm2.17-6.61a1.1,1.1,0,0,0-.87.37,1.38,1.38,0,0,0-.34.92,1.48,1.48,0,0,0,.33,1,1.07,1.07,0,0,0,.88.4,1,1,0,0,0,.85-.39,1.57,1.57,0,0,0,.3-1,1.37,1.37,0,0,0-.33-.92A1,1,0,0,0,131.25,112.72Z"/><path class="cls-6" d="M136,116.25a.81.81,0,0,1,.57.23.81.81,0,0,1,0,1.15.82.82,0,0,1-1.14,0,.83.83,0,0,1,0-1.15A.81.81,0,0,1,136,116.25Z"/><path class="cls-6" d="M7.94,126.94l.67-.56H15.1v6.82l-.58.67H7.94Zm6.33,6.46v-6.21H8.4v6.21Z"/><path class="cls-6" d="M25.6,126.18l-.36.92a2.76,2.76,0,0,0-1.62-.38,2,2,0,0,0-1.66.89,3.91,3.91,0,0,0-.63,2.3,3.53,3.53,0,0,0,.64,2.18,2.16,2.16,0,0,0,3.36,0l.59.82a3.25,3.25,0,0,1-2.4.93,2.94,2.94,0,0,1-2.43-1.11,4.57,4.57,0,0,1-.89-2.93,4.5,4.5,0,0,1,.95-2.93,3,3,0,0,1,2.44-1.17A4,4,0,0,1,25.6,126.18Z"/><path class="cls-6" d="M30.33,133.1a2.26,2.26,0,0,1-1.88.76,1.59,1.59,0,0,1-1.17-.49,1.65,1.65,0,0,1-.5-1.22,1.83,1.83,0,0,1,.77-1.48,3.06,3.06,0,0,1,1.95-.6,2.08,2.08,0,0,1,.73.14c0-.93-.41-1.4-1.24-1.4a2,2,0,0,0-1.48.52l-.43-.86a2.55,2.55,0,0,1,.81-.4,2.93,2.93,0,0,1,1-.17,2.5,2.5,0,0,1,1.82.57,2.51,2.51,0,0,1,.56,1.81v2.06a1.06,1.06,0,0,0,.45,1v.51a1.91,1.91,0,0,1-.93-.18A1,1,0,0,1,30.33,133.1Zm-.1-2.17a4,4,0,0,0-.67-.11,2,2,0,0,0-1.27.4,1.21,1.21,0,0,0-.49.94c0,.6.36.9,1.06.9a1.74,1.74,0,0,0,1.37-.74Z"/><path class="cls-6" d="M32.48,133.41l.36-1a2.77,2.77,0,0,0,1.38.55c.63,0,.94-.26.94-.79,0-.38-.3-.71-.91-1a6.8,6.8,0,0,1-1-.49,2.14,2.14,0,0,1-.42-.37,1.68,1.68,0,0,1-.27-.46,1.44,1.44,0,0,1-.09-.51,1.32,1.32,0,0,1,.52-1.11,2.15,2.15,0,0,1,1.34-.39,4.43,4.43,0,0,1,1.59.39l-.29,1a2,2,0,0,0-1.22-.48,1,1,0,0,0-.62.17.52.52,0,0,0-.25.43.91.91,0,0,0,.63.84l.73.33a2.6,2.6,0,0,1,1,.7,1.52,1.52,0,0,1,.31,1,1.47,1.47,0,0,1-.55,1.21,2.33,2.33,0,0,1-1.5.43A3.47,3.47,0,0,1,32.48,133.41Z"/><path class="cls-6" d="M40.86,133.76v-3.62a1.49,1.49,0,0,0-.32-1,1.1,1.1,0,0,0-.89-.37,1.52,1.52,0,0,0-.75.21,1.9,1.9,0,0,0-.57.51v4.28h-1v-8.11h1v3a1.56,1.56,0,0,1,.66-.53,2.19,2.19,0,0,1,.94-.21,1.79,1.79,0,0,1,1.43.6,2.46,2.46,0,0,1,.52,1.64v3.62Z"/><path class="cls-6" d="M7.92,142.94l.68-.56h6.48v6.82l-.57.67H7.92Zm6.34,6.46v-6.21H8.39v6.21Z"/><path class="cls-6" d="M26.49,149.76l-.93-5.06-1.72,5.16h-.27L21.8,144.7l-.91,5.06h-1l1.47-7.87h.49l1.88,5.74,1.72-5.74h.49l1.59,7.87Z"/><path class="cls-6" d="M33.14,147H29a2.07,2.07,0,0,0,.55,1.55,1.73,1.73,0,0,0,1.26.47,2.15,2.15,0,0,0,1.46-.51l.43.74a2,2,0,0,1-.72.41,4,4,0,0,1-1.37.22,2.53,2.53,0,0,1-1.84-.73,2.89,2.89,0,0,1-.84-2.18,3,3,0,0,1,.86-2.28,2.5,2.5,0,0,1,1.83-.77,2.62,2.62,0,0,1,1.93.69,2.37,2.37,0,0,1,.68,1.77A2.45,2.45,0,0,1,33.14,147Zm-2.48-2.22A1.61,1.61,0,0,0,29,146.24H32.2a1.47,1.47,0,0,0-.38-1A1.53,1.53,0,0,0,30.66,144.76Z"/><path class="cls-6" d="M37.94,149.75v-.42a2.12,2.12,0,0,1-1.55.53,2.22,2.22,0,0,1-1.75-.77A3.05,3.05,0,0,1,34,147a3.34,3.34,0,0,1,.77-2.21,2.34,2.34,0,0,1,1.84-.91,2,2,0,0,1,1.36.42v-2.67h1v8.1Zm0-4.41a1.2,1.2,0,0,0-1.06-.58,1.64,1.64,0,0,0-1.33.61,2.36,2.36,0,0,0-.51,1.56Q35,149,36.93,149a1.42,1.42,0,0,0,.58-.15.87.87,0,0,0,.43-.32Z"/><path class="cls-6" d="M40.91,149.76v-4.9h-.79V144h1.81v5.76Zm.56-7.93a.61.61,0,0,1,.45.18.63.63,0,0,1,0,.9.61.61,0,0,1-.45.18.6.6,0,0,1-.44-.18.65.65,0,0,1-.19-.45A.62.62,0,0,1,41,142,.6.6,0,0,1,41.47,141.83Z"/><path class="cls-6" d="M47.9,144.47l-.51.72a1.52,1.52,0,0,0-.55-.29,2.14,2.14,0,0,0-.78-.14,1.64,1.64,0,0,0-1.32.58,2.45,2.45,0,0,0-.49,1.6,2.19,2.19,0,0,0,.5,1.54,1.84,1.84,0,0,0,1.39.52,2.27,2.27,0,0,0,1.39-.53l.4.86a3.64,3.64,0,0,1-2,.53,2.58,2.58,0,0,1-1.94-.79,2.91,2.91,0,0,1-.77-2.13,3.06,3.06,0,0,1,.8-2.21,2.86,2.86,0,0,1,2.18-.83,3.25,3.25,0,0,1,1.74.57Z"/><path class="cls-6" d="M52.25,149.1a2.25,2.25,0,0,1-1.87.76,1.67,1.67,0,0,1-1.67-1.71,1.82,1.82,0,0,1,.76-1.48,3.07,3.07,0,0,1,2-.6,2.17,2.17,0,0,1,.73.14c0-.93-.42-1.4-1.25-1.4a2,2,0,0,0-1.47.52l-.43-.86a2.39,2.39,0,0,1,.8-.4,2.93,2.93,0,0,1,1-.17,2.06,2.06,0,0,1,2.39,2.38v2.06a1.06,1.06,0,0,0,.45,1v.51a1.86,1.86,0,0,1-.93-.18A1,1,0,0,1,52.25,149.1Zm-.09-2.17a4,4,0,0,0-.68-.11,1.94,1.94,0,0,0-1.26.4,1.18,1.18,0,0,0-.49.94c0,.6.35.9,1.06.9a1.76,1.76,0,0,0,1.37-.74Z"/><path class="cls-6" d="M55.15,144.81h-.67V144h.67v-1.2l1-.39V144h1.58v.81H56.17v2.86a1.72,1.72,0,0,0,.24,1,1,1,0,0,0,.79.3,1.91,1.91,0,0,0,.81-.19l.15.89a5.53,5.53,0,0,1-1.39.16,1.48,1.48,0,0,1-1.15-.5,1.79,1.79,0,0,1-.47-1.28Z"/><path class="cls-6" d="M59.64,149.76v-4.9h-.79V144h1.81v5.76Zm.56-7.93a.63.63,0,1,1,0,1.26.63.63,0,0,1-.45-.18.64.64,0,0,1-.18-.45.62.62,0,0,1,.63-.63Z"/><path class="cls-6" d="M61.9,146.87a3.12,3.12,0,0,1,.72-2.15,2.38,2.38,0,0,1,1.89-.82,2.43,2.43,0,0,1,1.92.78,3.28,3.28,0,0,1,.68,2.19,3.2,3.2,0,0,1-.7,2.19,2.67,2.67,0,0,1-3.82,0A3.26,3.26,0,0,1,61.9,146.87Zm1.08,0Q63,149,64.51,149a1.28,1.28,0,0,0,1.12-.58,2.72,2.72,0,0,0,.4-1.58c0-1.43-.5-2.14-1.52-2.14a1.29,1.29,0,0,0-1.11.57A2.59,2.59,0,0,0,63,146.87Z"/><path class="cls-6" d="M71.72,149.76v-3.35a2.29,2.29,0,0,0-.27-1.29,1.12,1.12,0,0,0-.93-.36,1.51,1.51,0,0,0-.73.21,1.66,1.66,0,0,0-.59.51v4.28h-1V144h.7l.32.75a1.77,1.77,0,0,1,1.65-.85c1.26,0,1.89.76,1.89,2.3v3.56Z"/><path class="cls-6" d="M73.82,149.41l.36-1a2.78,2.78,0,0,0,1.37.55c.63,0,1-.26,1-.79,0-.38-.31-.71-.92-1a7.14,7.14,0,0,1-.94-.49,2,2,0,0,1-.43-.37,1.68,1.68,0,0,1-.27-.46,1.44,1.44,0,0,1-.09-.51,1.35,1.35,0,0,1,.52-1.11,2.16,2.16,0,0,1,1.35-.39,4.34,4.34,0,0,1,1.58.39l-.29,1a2,2,0,0,0-1.22-.48,1,1,0,0,0-.61.17.5.5,0,0,0-.25.43.91.91,0,0,0,.63.84l.73.33a2.69,2.69,0,0,1,1,.7,1.58,1.58,0,0,1,.3,1,1.49,1.49,0,0,1-.54,1.21,2.33,2.33,0,0,1-1.5.43A3.41,3.41,0,0,1,73.82,149.41Z"/><path class="cls-6" d="M85.21,149.1a2.26,2.26,0,0,1-1.88.76,1.59,1.59,0,0,1-1.17-.49,1.65,1.65,0,0,1-.5-1.22,1.83,1.83,0,0,1,.77-1.48,3.06,3.06,0,0,1,1.95-.6,2.08,2.08,0,0,1,.73.14c0-.93-.41-1.4-1.24-1.4a2,2,0,0,0-1.47.52l-.43-.86a2.39,2.39,0,0,1,.8-.4,2.93,2.93,0,0,1,1-.17,2,2,0,0,1,2.38,2.38v2.06a1.06,1.06,0,0,0,.45,1v.51a1.91,1.91,0,0,1-.93-.18A1,1,0,0,1,85.21,149.1Zm-.1-2.17a4,4,0,0,0-.67-.11,2,2,0,0,0-1.27.4,1.2,1.2,0,0,0-.48.94q0,.9,1,.9a1.73,1.73,0,0,0,1.37-.74Z"/><path class="cls-6" d="M91.28,149.76v-3.35a2.2,2.2,0,0,0-.28-1.29,1.08,1.08,0,0,0-.92-.36,1.48,1.48,0,0,0-.73.21,1.66,1.66,0,0,0-.59.51v4.28h-1V144h.7l.32.75a1.77,1.77,0,0,1,1.65-.85c1.26,0,1.89.76,1.89,2.3v3.56Z"/><path class="cls-6" d="M97.4,149.75v-.42a2.12,2.12,0,0,1-1.55.53,2.22,2.22,0,0,1-1.75-.77,3.05,3.05,0,0,1-.67-2.07,3.34,3.34,0,0,1,.77-2.21A2.34,2.34,0,0,1,96,143.9a2,2,0,0,1,1.36.42v-2.67h1v8.1Zm0-4.41a1.2,1.2,0,0,0-1.06-.58,1.64,1.64,0,0,0-1.33.61,2.36,2.36,0,0,0-.51,1.56q0,2.07,1.89,2.07a1.46,1.46,0,0,0,.58-.15.87.87,0,0,0,.43-.32Z"/><path class="cls-6" d="M106.3,142.56a1.85,1.85,0,0,0-.58-.11,1,1,0,0,0-.77.36,1.31,1.31,0,0,0-.3.89c0,.1,0,.2,0,.3h1.18v.86h-1.18v4.9h-1v-4.9h-.83V144h.83a2.53,2.53,0,0,1,.55-1.73,1.82,1.82,0,0,1,1.43-.62,3.11,3.11,0,0,1,1,.16Z"/><path class="cls-6" d="M107.75,149.76v-4.9H107V144h1.81v5.76Zm.56-7.93a.61.61,0,0,1,.45.18.63.63,0,0,1,0,.9.61.61,0,0,1-.45.18.6.6,0,0,1-.44-.18.61.61,0,0,1-.19-.45.58.58,0,0,1,.19-.45A.6.6,0,0,1,108.31,141.83Z"/><path class="cls-6" d="M113.52,145a1.11,1.11,0,0,0-.67-.23,1.18,1.18,0,0,0-.95.5,1.83,1.83,0,0,0-.4,1.2v3.3h-1V144h1v.92a1.78,1.78,0,0,1,1.66-1,5.08,5.08,0,0,1,.79.09Z"/><path class="cls-6" d="M114.29,149.41l.36-1A2.77,2.77,0,0,0,116,149c.63,0,.94-.26.94-.79,0-.38-.3-.71-.91-1a7.46,7.46,0,0,1-1-.49,2.14,2.14,0,0,1-.42-.37,1.68,1.68,0,0,1-.27-.46,1.44,1.44,0,0,1-.09-.51,1.32,1.32,0,0,1,.52-1.11,2.16,2.16,0,0,1,1.35-.39,4.39,4.39,0,0,1,1.58.39l-.29,1a2,2,0,0,0-1.22-.48,1,1,0,0,0-.61.17.5.5,0,0,0-.25.43.91.91,0,0,0,.63.84l.73.33a2.64,2.64,0,0,1,1,.7,1.52,1.52,0,0,1,.31,1,1.49,1.49,0,0,1-.54,1.21,2.38,2.38,0,0,1-1.51.43A3.47,3.47,0,0,1,114.29,149.41Z"/><path class="cls-6" d="M119.49,144.81h-.67V144h.67v-1.2l1-.39V144h1.58v.81h-1.58v2.86a1.72,1.72,0,0,0,.24,1,1,1,0,0,0,.79.3,1.91,1.91,0,0,0,.81-.19l.15.89a5.47,5.47,0,0,1-1.39.16,1.49,1.49,0,0,1-1.15-.5,1.84,1.84,0,0,1-.47-1.28Z"/><path class="cls-6" d="M130.05,149.1a2.26,2.26,0,0,1-1.88.76,1.59,1.59,0,0,1-1.17-.49,1.65,1.65,0,0,1-.5-1.22,1.83,1.83,0,0,1,.77-1.48,3.06,3.06,0,0,1,2-.6,2.08,2.08,0,0,1,.73.14c0-.93-.41-1.4-1.24-1.4a2,2,0,0,0-1.48.52l-.43-.86a2.55,2.55,0,0,1,.81-.4,2.93,2.93,0,0,1,1-.17,2,2,0,0,1,2.38,2.38v2.06a1.06,1.06,0,0,0,.45,1v.51a1.91,1.91,0,0,1-.93-.18A1,1,0,0,1,130.05,149.1Zm-.1-2.17a4,4,0,0,0-.67-.11,2,2,0,0,0-1.27.4,1.21,1.21,0,0,0-.49.94c0,.6.36.9,1.06.9a1.74,1.74,0,0,0,1.37-.74Z"/><path class="cls-6" d="M133.07,149.76v-4.9h-.79V144h1.81v5.76Zm.56-7.93a.61.61,0,0,1,.45.18.63.63,0,0,1,0,.9.61.61,0,0,1-.45.18.6.6,0,0,1-.44-.18.61.61,0,0,1-.19-.45.58.58,0,0,1,.19-.45A.6.6,0,0,1,133.63,141.83Z"/><path class="cls-6" d="M139.36,149.75v-.42a2.1,2.1,0,0,1-1.54.53,2.25,2.25,0,0,1-1.76-.77,3.1,3.1,0,0,1-.67-2.07,3.3,3.3,0,0,1,.78-2.21,2.33,2.33,0,0,1,1.84-.91,2,2,0,0,1,1.35.42v-2.67h1v8.1Zm0-4.41a1.2,1.2,0,0,0-1.06-.58,1.65,1.65,0,0,0-1.33.61,2.41,2.41,0,0,0-.5,1.56q0,2.07,1.89,2.07a1.5,1.5,0,0,0,.58-.15.88.88,0,0,0,.42-.32Z"/><path class="cls-6" d="M20.7,165.41l.36-1a2.77,2.77,0,0,0,1.38.55c.63,0,.94-.26.94-.79,0-.38-.3-.71-.91-1a7.46,7.46,0,0,1-.95-.49,2.14,2.14,0,0,1-.42-.37,1.68,1.68,0,0,1-.27-.46,1.44,1.44,0,0,1-.09-.51,1.32,1.32,0,0,1,.52-1.11,2.16,2.16,0,0,1,1.35-.39,4.44,4.44,0,0,1,1.58.39l-.29,1a2,2,0,0,0-1.22-.48,1,1,0,0,0-.61.17.5.5,0,0,0-.25.43.91.91,0,0,0,.62.84l.73.33a2.6,2.6,0,0,1,1,.7,1.52,1.52,0,0,1,.31,1,1.49,1.49,0,0,1-.54,1.21,2.38,2.38,0,0,1-1.51.43A3.47,3.47,0,0,1,20.7,165.41Z"/><path class="cls-6" d="M26.5,160v3.67c0,.89.38,1.33,1.15,1.33a1.55,1.55,0,0,0,.93-.29,1.34,1.34,0,0,0,.55-.67v-4h1v5.76h-1V165a1.52,1.52,0,0,1-.69.62,2.06,2.06,0,0,1-1,.28,1.89,1.89,0,0,1-1.45-.54,2.19,2.19,0,0,1-.5-1.54V160Z"/><path class="cls-6" d="M32.56,165.44V168h-1v-8h1v.48A1.92,1.92,0,0,1,34,159.9a2.41,2.41,0,0,1,1.9.76,3.85,3.85,0,0,1,0,4.37,2.42,2.42,0,0,1-2,.83,2.85,2.85,0,0,1-.78-.12A1.09,1.09,0,0,1,32.56,165.44Zm0-4.19v3.35a.93.93,0,0,0,.41.27,1.52,1.52,0,0,0,.61.13c1.27,0,1.9-.71,1.9-2.14a2.37,2.37,0,0,0-.45-1.6,1.83,1.83,0,0,0-1.45-.5,1.27,1.27,0,0,0-.52.15A1.75,1.75,0,0,0,32.56,161.25Z"/><path class="cls-6" d="M38.69,165.44V168h-1v-8h1v.48a1.91,1.91,0,0,1,1.4-.58,2.41,2.41,0,0,1,1.91.76,3.22,3.22,0,0,1,.68,2.23A3.27,3.27,0,0,1,42,165a2.43,2.43,0,0,1-2,.83,2.74,2.74,0,0,1-.78-.12A1.09,1.09,0,0,1,38.69,165.44Zm0-4.19v3.35a.93.93,0,0,0,.41.27,1.52,1.52,0,0,0,.61.13c1.26,0,1.9-.71,1.9-2.14a2.37,2.37,0,0,0-.45-1.6,1.83,1.83,0,0,0-1.45-.5,1.23,1.23,0,0,0-.52.15A1.62,1.62,0,0,0,38.69,161.25Z"/><path class="cls-6" d="M43.88,164.13v-6.48h1V164a1,1,0,0,0,.27.73,1,1,0,0,0,.69.26v.91C44.54,165.86,43.88,165.29,43.88,164.13Z"/><path class="cls-6" d="M47.54,165.76v-4.9h-.79V160h1.81v5.76Zm.56-7.93a.63.63,0,1,1,0,1.26.63.63,0,0,1-.45-.18.64.64,0,0,1-.18-.45.62.62,0,0,1,.63-.63Z"/><path class="cls-6" d="M55,163H50.88a2.07,2.07,0,0,0,.55,1.55,1.73,1.73,0,0,0,1.26.47,2.15,2.15,0,0,0,1.46-.51l.43.74a2,2,0,0,1-.73.41,3.88,3.88,0,0,1-1.36.22,2.53,2.53,0,0,1-1.84-.73A2.9,2.9,0,0,1,49.8,163a3.05,3.05,0,0,1,.87-2.28,2.5,2.5,0,0,1,1.83-.77,2.64,2.64,0,0,1,1.93.69,2.37,2.37,0,0,1,.68,1.77A2.45,2.45,0,0,1,55,163Zm-2.48-2.22a1.54,1.54,0,0,0-1.14.44,1.56,1.56,0,0,0-.5,1h3.18a1.44,1.44,0,0,0-.39-1A1.49,1.49,0,0,0,52.55,160.76Z"/><path class="cls-6" d="M55.8,165.41l.36-1a2.77,2.77,0,0,0,1.38.55c.63,0,.94-.26.94-.79,0-.38-.3-.71-.91-1a7.46,7.46,0,0,1-1-.49,2.14,2.14,0,0,1-.42-.37,1.68,1.68,0,0,1-.27-.46,1.44,1.44,0,0,1-.09-.51,1.32,1.32,0,0,1,.52-1.11,2.16,2.16,0,0,1,1.35-.39,4.44,4.44,0,0,1,1.58.39l-.29,1a2,2,0,0,0-1.22-.48,1,1,0,0,0-.61.17.5.5,0,0,0-.25.43.91.91,0,0,0,.62.84l.73.33a2.6,2.6,0,0,1,1,.7,1.52,1.52,0,0,1,.31,1,1.49,1.49,0,0,1-.54,1.21,2.38,2.38,0,0,1-1.51.43A3.47,3.47,0,0,1,55.8,165.41Z"/><path class="cls-6" d="M61.81,164.25a.81.81,0,0,1,.57.23.83.83,0,0,1,0,1.15.82.82,0,0,1-1.14,0,.81.81,0,0,1,0-1.15A.81.81,0,0,1,61.81,164.25Z"/><path class="cls-6" d="M7.9,174.94l.67-.56h6.49v6.82l-.58.67H7.9Zm6.33,6.46v-6.21H8.37v6.21Z"/><path class="cls-6" d="M25.57,174.18l-.36.92a2.8,2.8,0,0,0-1.62-.38,2,2,0,0,0-1.67.89,4,4,0,0,0-.62,2.3,3.47,3.47,0,0,0,.64,2.18,2,2,0,0,0,1.66.83,2,2,0,0,0,1.7-.78l.59.82a3.27,3.27,0,0,1-2.41.93,2.93,2.93,0,0,1-2.42-1.11,5.15,5.15,0,0,1,.05-5.86,3,3,0,0,1,2.45-1.17A4.05,4.05,0,0,1,25.57,174.18Z"/><path class="cls-6" d="M27.13,180.13v-6.48h1V180a.9.9,0,0,0,1,1v.91C27.79,181.86,27.13,181.29,27.13,180.13Z"/><path class="cls-6" d="M29.91,178.87a3.12,3.12,0,0,1,.72-2.15,2.38,2.38,0,0,1,1.89-.82,2.43,2.43,0,0,1,1.92.78,3.82,3.82,0,0,1,0,4.38,2.67,2.67,0,0,1-3.82,0A3.26,3.26,0,0,1,29.91,178.87Zm1.08,0Q31,181,32.52,181a1.29,1.29,0,0,0,1.12-.58,2.72,2.72,0,0,0,.4-1.58c0-1.43-.51-2.14-1.52-2.14a1.32,1.32,0,0,0-1.12.57A2.66,2.66,0,0,0,31,178.87Z"/><path class="cls-6" d="M36.56,176.81h-.67V176h.67v-1.2l1-.39V176h1.58v.81H37.58v2.86a1.72,1.72,0,0,0,.24,1,1,1,0,0,0,.79.3,1.91,1.91,0,0,0,.81-.19l.15.89a5.53,5.53,0,0,1-1.39.16,1.48,1.48,0,0,1-1.15-.5,1.79,1.79,0,0,1-.47-1.28Z"/><path class="cls-6" d="M44.1,181.76v-3.62a1.49,1.49,0,0,0-.32-1,1.1,1.1,0,0,0-.89-.37,1.46,1.46,0,0,0-.74.21,2,2,0,0,0-.58.51v4.28h-1v-8.11h1v3a1.56,1.56,0,0,1,.66-.53,2.22,2.22,0,0,1,.94-.21,1.79,1.79,0,0,1,1.43.6,2.41,2.41,0,0,1,.52,1.64v3.62Z"/><path class="cls-6" d="M47.06,181.76v-4.9h-.79V176h1.81v5.76Zm.56-7.93a.6.6,0,0,1,.44.18.63.63,0,0,1,0,.9.6.6,0,0,1-.44.18.63.63,0,0,1-.45-.18.64.64,0,0,1-.18-.45.62.62,0,0,1,.63-.63Z"/><path class="cls-6" d="M53.24,181.76v-3.35a2.2,2.2,0,0,0-.28-1.29,1.08,1.08,0,0,0-.92-.36,1.48,1.48,0,0,0-.73.21,1.66,1.66,0,0,0-.59.51v4.28h-1V176h.7l.32.75a1.77,1.77,0,0,1,1.65-.85c1.26,0,1.89.76,1.89,2.3v3.56Z"/><path class="cls-6" d="M55.5,183.33l.55-.82a3,3,0,0,0,1.65.6,2.12,2.12,0,0,0,1.09-.24.69.69,0,0,0,.4-.59c0-.47-.34-.7-1-.7a3.86,3.86,0,0,0-.62.09,4.75,4.75,0,0,1-.71.08c-.81,0-1.22-.31-1.22-.92a.68.68,0,0,1,.29-.52,1.87,1.87,0,0,1,.71-.33,2,2,0,0,1-1.22-2,2,2,0,0,1,.63-1.5,2.47,2.47,0,0,1,2.88-.25l.51-.62.67.63-.61.46a2.15,2.15,0,0,1,.39,1.34,2.09,2.09,0,0,1-.54,1.46,2.15,2.15,0,0,1-1.43.67l-.84.09a1.43,1.43,0,0,0-.4.12c-.17.06-.26.15-.26.26s.18.22.53.22a4.55,4.55,0,0,0,.72-.09,5.66,5.66,0,0,1,.72-.08,1.94,1.94,0,0,1,1.33.41,1.38,1.38,0,0,1,.47,1.12,1.47,1.47,0,0,1-.71,1.28,3.06,3.06,0,0,1-1.8.49,3.7,3.7,0,0,1-1.18-.2A3.26,3.26,0,0,1,55.5,183.33Zm2.17-6.61a1.1,1.1,0,0,0-.87.37,1.33,1.33,0,0,0-.34.92,1.48,1.48,0,0,0,.33,1,1.06,1.06,0,0,0,.88.4,1,1,0,0,0,.84-.39,1.51,1.51,0,0,0,.31-1,1.37,1.37,0,0,0-.33-.92A1.05,1.05,0,0,0,57.67,176.72Z"/><path class="cls-6" d="M61.71,183.71l-.27-.39c.61-.51.92-.93.92-1.29a.81.81,0,0,0-.16-.47.69.69,0,0,1-.46-.64.59.59,0,0,1,.22-.47.83.83,0,0,1,.55-.18.68.68,0,0,1,.53.26.88.88,0,0,1,.23.6,2.79,2.79,0,0,1-.3,1.29A4.24,4.24,0,0,1,61.71,183.71Z"/><path class="cls-6" d="M69,176.81h-.67V176H69v-1.2l1-.39V176h1.58v.81H70v2.86a1.72,1.72,0,0,0,.24,1,1,1,0,0,0,.79.3,1.91,1.91,0,0,0,.81-.19l.15.89a5.47,5.47,0,0,1-1.39.16,1.49,1.49,0,0,1-1.15-.5,1.84,1.84,0,0,1-.47-1.28Z"/><path class="cls-6" d="M72.57,178.87a3.12,3.12,0,0,1,.72-2.15,2.35,2.35,0,0,1,1.88-.82,2.4,2.4,0,0,1,1.92.78,3.84,3.84,0,0,1,0,4.38,2.67,2.67,0,0,1-3.82,0A3.26,3.26,0,0,1,72.57,178.87Zm1.07,0q0,2.16,1.53,2.16a1.28,1.28,0,0,0,1.12-.58,2.72,2.72,0,0,0,.41-1.58c0-1.43-.51-2.14-1.53-2.14a1.31,1.31,0,0,0-1.11.57A2.59,2.59,0,0,0,73.64,178.87Z"/><path class="cls-6" d="M79.34,181.76v-4.9h-.79V176h1.81v5.76Zm.56-7.93a.61.61,0,0,1,.45.18.63.63,0,0,1,0,.9.61.61,0,0,1-.45.18.6.6,0,0,1-.44-.18.61.61,0,0,1-.19-.45.58.58,0,0,1,.19-.45A.6.6,0,0,1,79.9,173.83Z"/><path class="cls-6" d="M82.07,180.13v-6.48h1V180a1,1,0,0,0,.26.73,1,1,0,0,0,.7.26v.91C82.73,181.86,82.07,181.29,82.07,180.13Z"/><path class="cls-6" d="M90.07,179H85.93a2.07,2.07,0,0,0,.55,1.55,1.73,1.73,0,0,0,1.26.47,2.15,2.15,0,0,0,1.46-.51l.43.74a2,2,0,0,1-.73.41,3.88,3.88,0,0,1-1.36.22,2.53,2.53,0,0,1-1.84-.73,2.86,2.86,0,0,1-.85-2.18,3.05,3.05,0,0,1,.87-2.28,2.46,2.46,0,0,1,1.83-.77,2.64,2.64,0,0,1,1.93.69,2.36,2.36,0,0,1,.67,1.77A2.07,2.07,0,0,1,90.07,179Zm-2.47-2.22a1.58,1.58,0,0,0-1.15.44,1.61,1.61,0,0,0-.5,1h3.19a1.44,1.44,0,0,0-.39-1A1.51,1.51,0,0,0,87.6,176.76Z"/><path class="cls-6" d="M91.59,176.81h-.66V176h.66v-1.2l1-.39V176h1.58v.81H92.61v2.86a1.71,1.71,0,0,0,.25,1,1,1,0,0,0,.79.3,1.91,1.91,0,0,0,.81-.19l.15.89a5.53,5.53,0,0,1-1.39.16,1.52,1.52,0,0,1-1.16-.5,1.84,1.84,0,0,1-.47-1.28Z"/><path class="cls-6" d="M98.72,177a1.13,1.13,0,0,0-1.62.27,1.84,1.84,0,0,0-.41,1.2v3.3h-1V176h1v.92a1.79,1.79,0,0,1,1.66-1,5,5,0,0,1,.79.09Z"/><path class="cls-6" d="M100.36,181.76v-4.9h-.79V176h1.81v5.76Zm.56-7.93a.63.63,0,1,1,0,1.26.6.6,0,0,1-.44-.18.63.63,0,0,1,.44-1.08Z"/><path class="cls-6" d="M107.85,179H103.7a2.11,2.11,0,0,0,.55,1.55,1.73,1.73,0,0,0,1.26.47,2.15,2.15,0,0,0,1.46-.51l.43.74a2,2,0,0,1-.72.41,4,4,0,0,1-1.37.22,2.53,2.53,0,0,1-1.84-.73,2.89,2.89,0,0,1-.84-2.18,3,3,0,0,1,.86-2.28,2.5,2.5,0,0,1,1.83-.77,2.62,2.62,0,0,1,1.93.69,2.37,2.37,0,0,1,.68,1.77A2.45,2.45,0,0,1,107.85,179Zm-2.48-2.22a1.61,1.61,0,0,0-1.64,1.48h3.18a1.47,1.47,0,0,0-.38-1A1.53,1.53,0,0,0,105.37,176.76Z"/><path class="cls-6" d="M108.63,181.41l.36-1a2.75,2.75,0,0,0,1.37.55c.63,0,1-.26,1-.79,0-.38-.31-.71-.92-1a6.52,6.52,0,0,1-.94-.49,2,2,0,0,1-.43-.37,1.68,1.68,0,0,1-.27-.46,1.44,1.44,0,0,1-.09-.51,1.35,1.35,0,0,1,.52-1.11,2.16,2.16,0,0,1,1.35-.39,4.39,4.39,0,0,1,1.58.39l-.29,1a2,2,0,0,0-1.22-.48,1,1,0,0,0-.61.17.5.5,0,0,0-.25.43.91.91,0,0,0,.63.84l.73.33a2.64,2.64,0,0,1,1,.7,1.52,1.52,0,0,1,.31,1,1.49,1.49,0,0,1-.54,1.21,2.34,2.34,0,0,1-1.51.43A3.41,3.41,0,0,1,108.63,181.41Z"/><path class="cls-6" d="M114.63,180.25a.81.81,0,0,1,.57.23.81.81,0,0,1,0,1.15.81.81,0,1,1-.57-1.38Z"/><path class="cls-6" d="M7.89,190.94l.67-.56h6.49v6.82l-.58.67H7.89Zm6.33,6.46v-6.21H8.36v6.21Z"/><path class="cls-6" d="M22.78,197.76H20.53v-7.87c1,0,1.65-.07,2.07-.07a2.91,2.91,0,0,1,1.81.5,1.74,1.74,0,0,1,.64,1.44,1.48,1.48,0,0,1-.41,1,1.71,1.71,0,0,1-.91.56,2.44,2.44,0,0,1,1.37.75,2.17,2.17,0,0,1,.42,1.41,2,2,0,0,1-.76,1.66A3,3,0,0,1,22.78,197.76Zm-1.17-7V193q.33,0,.84,0c1,0,1.52-.41,1.52-1.24s-.47-1.09-1.4-1.09A9.21,9.21,0,0,0,21.61,190.75Zm0,3.09v3a8.47,8.47,0,0,0,.85.06,2.33,2.33,0,0,0,1.47-.38,1.48,1.48,0,0,0,.47-1.21,1.36,1.36,0,0,0-.45-1.13,2.36,2.36,0,0,0-1.48-.37Z"/><path class="cls-6" d="M29.93,197.1a2.27,2.27,0,0,1-1.88.76,1.59,1.59,0,0,1-1.17-.49,1.65,1.65,0,0,1-.5-1.22,1.83,1.83,0,0,1,.77-1.48,3.06,3.06,0,0,1,2-.6,2.08,2.08,0,0,1,.73.14c0-.93-.41-1.4-1.25-1.4a2,2,0,0,0-1.47.52l-.43-.86a2.45,2.45,0,0,1,.81-.4,2.93,2.93,0,0,1,1-.17,2.5,2.5,0,0,1,1.82.57,2.51,2.51,0,0,1,.56,1.81v2.06a1.06,1.06,0,0,0,.45,1v.51a1.91,1.91,0,0,1-.93-.18A1,1,0,0,1,29.93,197.1Zm-.1-2.17a3.9,3.9,0,0,0-.68-.11,2,2,0,0,0-1.26.4,1.21,1.21,0,0,0-.49.94c0,.6.36.9,1.06.9a1.74,1.74,0,0,0,1.37-.74Z"/><path class="cls-6" d="M32.82,192.81h-.66V192h.66v-1.2l1-.39V192h1.58v.81H33.84v2.86a1.64,1.64,0,0,0,.25,1,.94.94,0,0,0,.78.3,1.92,1.92,0,0,0,.82-.19l.15.89a5.61,5.61,0,0,1-1.4.16,1.51,1.51,0,0,1-1.15-.5,1.84,1.84,0,0,1-.47-1.28Z"/><path class="cls-6" d="M37.18,192.81h-.66V192h.66v-1.2l1-.39V192h1.58v.81H38.2v2.86a1.71,1.71,0,0,0,.25,1,1,1,0,0,0,.79.3,1.91,1.91,0,0,0,.81-.19l.15.89a5.58,5.58,0,0,1-1.39.16,1.52,1.52,0,0,1-1.16-.5,1.84,1.84,0,0,1-.47-1.28Z"/><path class="cls-6" d="M46,195H41.88a2.07,2.07,0,0,0,.55,1.55,1.73,1.73,0,0,0,1.26.47,2.15,2.15,0,0,0,1.46-.51l.43.74a2,2,0,0,1-.73.41,3.88,3.88,0,0,1-1.36.22,2.53,2.53,0,0,1-1.84-.73A2.9,2.9,0,0,1,40.8,195a3.05,3.05,0,0,1,.87-2.28,2.46,2.46,0,0,1,1.83-.77,2.64,2.64,0,0,1,1.93.69,2.37,2.37,0,0,1,.68,1.77A2.06,2.06,0,0,1,46,195Zm-2.47-2.22a1.58,1.58,0,0,0-1.15.44,1.55,1.55,0,0,0-.49,1h3.18a1.44,1.44,0,0,0-.39-1A1.49,1.49,0,0,0,43.55,192.76Z"/><path class="cls-6" d="M50.31,193a1.13,1.13,0,0,0-1.62.27,1.84,1.84,0,0,0-.41,1.2v3.3h-1V192h1v.92a1.79,1.79,0,0,1,1.66-1,5,5,0,0,1,.79.09Z"/><path class="cls-6" d="M53.65,198.73a1.78,1.78,0,0,1-.83.92,2.86,2.86,0,0,1-1.42.36v-.91a1.94,1.94,0,0,0,1.09-.3.85.85,0,0,0,.46-.73,2.77,2.77,0,0,0-.17-.93c-.11-.3-.25-.68-.43-1.13l-1.56-4h1.05l1.69,4.45L55.05,192h1Z"/><path class="cls-6" d="M57,195v-.94h2.3V195Z"/><path class="cls-6" d="M61.94,197.44V200h-1v-8h1v.48a1.89,1.89,0,0,1,1.4-.58,2.43,2.43,0,0,1,1.91.76,3.27,3.27,0,0,1,.68,2.23,3.22,3.22,0,0,1-.69,2.14,2.41,2.41,0,0,1-2,.83,2.86,2.86,0,0,1-.79-.12A1.1,1.1,0,0,1,61.94,197.44Zm0-4.19v3.35a.87.87,0,0,0,.41.27,1.51,1.51,0,0,0,.6.13c1.27,0,1.91-.71,1.91-2.14a2.32,2.32,0,0,0-.46-1.6,1.83,1.83,0,0,0-1.44-.5,1.3,1.3,0,0,0-.53.15A1.69,1.69,0,0,0,61.94,193.25Z"/><path class="cls-6" d="M66.67,194.87a3.12,3.12,0,0,1,.72-2.15,2.66,2.66,0,0,1,3.8,0,3.8,3.8,0,0,1,0,4.38,2.67,2.67,0,0,1-3.82,0A3.26,3.26,0,0,1,66.67,194.87Zm1.08,0q0,2.16,1.53,2.16a1.29,1.29,0,0,0,1.12-.58,2.72,2.72,0,0,0,.4-1.58c0-1.43-.51-2.14-1.52-2.14a1.32,1.32,0,0,0-1.12.57A2.59,2.59,0,0,0,67.75,194.87Z"/><path class="cls-6" d="M78.27,197.86H78L76.31,194l-1.68,3.91h-.27l-2-5.87H73.4l1.23,3.77L76.16,192h.27L78,195.76,79.33,192h1Z"/><path class="cls-6" d="M86,195H81.83a2.07,2.07,0,0,0,.56,1.55,1.69,1.69,0,0,0,1.25.47,2.13,2.13,0,0,0,1.46-.51l.43.74a1.84,1.84,0,0,1-.72.41,3.92,3.92,0,0,1-1.36.22,2.56,2.56,0,0,1-1.85-.73,2.89,2.89,0,0,1-.84-2.18,3.08,3.08,0,0,1,.86-2.28,2.5,2.5,0,0,1,1.84-.77,2.6,2.6,0,0,1,1.92.69,2.33,2.33,0,0,1,.68,1.77A2.45,2.45,0,0,1,86,195Zm-2.48-2.22a1.57,1.57,0,0,0-1.14.44,1.61,1.61,0,0,0-.5,1h3.19a1.44,1.44,0,0,0-.39-1A1.51,1.51,0,0,0,83.5,192.76Z"/><path class="cls-6" d="M90.26,193a1.11,1.11,0,0,0-.67-.23,1.18,1.18,0,0,0-1,.5,1.83,1.83,0,0,0-.4,1.2v3.3h-1V192h1v.92a1.78,1.78,0,0,1,1.66-1,5.08,5.08,0,0,1,.79.09Z"/><path class="cls-6" d="M96.26,195H92.11a2.07,2.07,0,0,0,.55,1.55,1.73,1.73,0,0,0,1.26.47,2.15,2.15,0,0,0,1.46-.51l.43.74a2,2,0,0,1-.73.41,3.88,3.88,0,0,1-1.36.22,2.53,2.53,0,0,1-1.84-.73A2.9,2.9,0,0,1,91,195a3.05,3.05,0,0,1,.87-2.28,2.5,2.5,0,0,1,1.83-.77,2.64,2.64,0,0,1,1.93.69,2.37,2.37,0,0,1,.68,1.77A2.45,2.45,0,0,1,96.26,195Zm-2.48-2.22a1.54,1.54,0,0,0-1.14.44,1.56,1.56,0,0,0-.5,1h3.18a1.44,1.44,0,0,0-.39-1A1.49,1.49,0,0,0,93.78,192.76Z"/><path class="cls-6" d="M101.06,197.75v-.42a2.12,2.12,0,0,1-1.55.53,2.22,2.22,0,0,1-1.75-.77,3.05,3.05,0,0,1-.67-2.07,3.34,3.34,0,0,1,.77-2.21,2.34,2.34,0,0,1,1.84-.91,2,2,0,0,1,1.36.42v-2.67h1v8.1Zm0-4.41a1.2,1.2,0,0,0-1.06-.58,1.64,1.64,0,0,0-1.33.61,2.36,2.36,0,0,0-.51,1.56q0,2.07,1.89,2.07a1.46,1.46,0,0,0,.58-.15.87.87,0,0,0,.43-.32Z"/><path class="cls-6" d="M110,193a1.13,1.13,0,0,0-.67-.23,1.18,1.18,0,0,0-1,.5,1.84,1.84,0,0,0-.41,1.2v3.3h-1V192h1v.92a1.8,1.8,0,0,1,1.66-1,5,5,0,0,1,.79.09Z"/><path class="cls-6" d="M114.38,197.1a2.27,2.27,0,0,1-1.88.76,1.59,1.59,0,0,1-1.17-.49,1.65,1.65,0,0,1-.5-1.22,1.83,1.83,0,0,1,.77-1.48,3.06,3.06,0,0,1,2-.6,2.12,2.12,0,0,1,.73.14c0-.93-.41-1.4-1.25-1.4a2,2,0,0,0-1.47.52l-.43-.86a2.45,2.45,0,0,1,.81-.4,2.89,2.89,0,0,1,1-.17,2.05,2.05,0,0,1,2.38,2.38v2.06a1.06,1.06,0,0,0,.45,1v.51a1.91,1.91,0,0,1-.93-.18A1,1,0,0,1,114.38,197.1Zm-.1-2.17a3.9,3.9,0,0,0-.68-.11,2,2,0,0,0-1.26.4,1.21,1.21,0,0,0-.49.94c0,.6.36.9,1.06.9a1.74,1.74,0,0,0,1.37-.74Z"/><path class="cls-6" d="M120.55,197.75v-.42a2.1,2.1,0,0,1-1.54.53,2.21,2.21,0,0,1-1.75-.77,3.05,3.05,0,0,1-.68-2.07,3.3,3.3,0,0,1,.78-2.21,2.33,2.33,0,0,1,1.84-.91,1.93,1.93,0,0,1,1.35.42v-2.67h1v8.1Zm0-4.41a1.19,1.19,0,0,0-1-.58,1.62,1.62,0,0,0-1.33.61,2.36,2.36,0,0,0-.51,1.56q0,2.07,1.89,2.07a1.5,1.5,0,0,0,.58-.15.79.79,0,0,0,.42-.32Z"/><path class="cls-6" d="M123.53,197.76v-4.9h-.79V192h1.81v5.76Zm.56-7.93a.63.63,0,1,1,0,1.26.6.6,0,0,1-.44-.18.63.63,0,0,1,.44-1.08Z"/><path class="cls-6" d="M125.8,194.87a3.17,3.17,0,0,1,.71-2.15,2.38,2.38,0,0,1,1.89-.82,2.43,2.43,0,0,1,1.92.78,3.28,3.28,0,0,1,.68,2.19,3.2,3.2,0,0,1-.7,2.19,2.67,2.67,0,0,1-3.82,0A3.31,3.31,0,0,1,125.8,194.87Zm1.07,0q0,2.16,1.53,2.16a1.28,1.28,0,0,0,1.12-.58,2.72,2.72,0,0,0,.41-1.58c0-1.43-.51-2.14-1.53-2.14a1.3,1.3,0,0,0-1.11.57A2.59,2.59,0,0,0,126.87,194.87Z"/><path class="cls-6" d="M133.25,196.25a.81.81,0,0,1,.57.23.81.81,0,0,1,0,1.15.82.82,0,0,1-1.14,0,.83.83,0,0,1,0-1.15A.81.81,0,0,1,133.25,196.25Z"/><path class="cls-6" d="M7.88,206.94l.67-.56H15v6.82l-.58.67H7.88Zm6.33,6.46v-6.21H8.35v6.21Z"/><path class="cls-6" d="M21.6,206.85V209h2.76V210H21.6v3.81H20.52v-7.87h4.86v1Z"/><path class="cls-6" d="M26.3,212.13v-6.48h1V212a1,1,0,0,0,.26.73,1,1,0,0,0,.7.26v.91C27,213.86,26.3,213.29,26.3,212.13Z"/><path class="cls-6" d="M32.71,213.1a2.26,2.26,0,0,1-1.88.76,1.59,1.59,0,0,1-1.17-.49,1.65,1.65,0,0,1-.5-1.22,1.83,1.83,0,0,1,.77-1.48,3.06,3.06,0,0,1,1.95-.6,2.08,2.08,0,0,1,.73.14c0-.93-.41-1.4-1.24-1.4a2,2,0,0,0-1.48.52l-.43-.86a2.55,2.55,0,0,1,.81-.4,2.93,2.93,0,0,1,1-.17,2.5,2.5,0,0,1,1.82.57,2.51,2.51,0,0,1,.56,1.81v2.06a1.06,1.06,0,0,0,.45,1v.51a1.91,1.91,0,0,1-.93-.18A1,1,0,0,1,32.71,213.1Zm-.1-2.17a4,4,0,0,0-.67-.11,2,2,0,0,0-1.27.4,1.21,1.21,0,0,0-.49.94c0,.6.36.9,1.06.9a1.74,1.74,0,0,0,1.37-.74Z"/><path class="cls-6" d="M34.86,213.41l.36-1a2.77,2.77,0,0,0,1.38.55c.63,0,.94-.26.94-.79,0-.38-.3-.71-.91-1a6.8,6.8,0,0,1-1-.49,2.14,2.14,0,0,1-.42-.37,1.68,1.68,0,0,1-.27-.46,1.44,1.44,0,0,1-.09-.51,1.32,1.32,0,0,1,.52-1.11,2.15,2.15,0,0,1,1.34-.39,4.43,4.43,0,0,1,1.59.39l-.29,1a2,2,0,0,0-1.22-.48,1,1,0,0,0-.62.17.52.52,0,0,0-.25.43.91.91,0,0,0,.63.84l.73.33a2.6,2.6,0,0,1,1,.7,1.52,1.52,0,0,1,.31,1,1.47,1.47,0,0,1-.55,1.21,2.33,2.33,0,0,1-1.5.43A3.47,3.47,0,0,1,34.86,213.41Z"/><path class="cls-6" d="M43.24,213.76v-3.62a1.49,1.49,0,0,0-.32-1,1.1,1.1,0,0,0-.89-.37,1.52,1.52,0,0,0-.75.21,1.9,1.9,0,0,0-.57.51v4.28h-1v-8.11h1v3a1.56,1.56,0,0,1,.66-.53,2.19,2.19,0,0,1,.94-.21,1.79,1.79,0,0,1,1.43.6,2.46,2.46,0,0,1,.52,1.64v3.62Z"/><path class="cls-6" d="M45.78,212.13v-6.48h1V212a1,1,0,0,0,.27.73,1,1,0,0,0,.69.26v.91C46.44,213.86,45.78,213.29,45.78,212.13Z"/><path class="cls-6" d="M49.44,213.76v-4.9h-.79V208h1.81v5.76Zm.56-7.93a.63.63,0,1,1,0,1.26.6.6,0,0,1-.44-.18.63.63,0,0,1,.44-1.08Z"/><path class="cls-6" d="M51.87,215.33l.56-.82a3,3,0,0,0,1.64.6,2.1,2.1,0,0,0,1.09-.24.69.69,0,0,0,.4-.59c0-.47-.33-.7-1-.7a3.86,3.86,0,0,0-.62.09,4.65,4.65,0,0,1-.7.08c-.82,0-1.23-.31-1.23-.92a.68.68,0,0,1,.29-.52A1.87,1.87,0,0,1,53,212a2,2,0,0,1-1.21-2,2,2,0,0,1,.63-1.5,2.45,2.45,0,0,1,2.87-.25l.51-.62.67.63-.61.46a2.15,2.15,0,0,1,.39,1.34,2.09,2.09,0,0,1-.54,1.46,2.12,2.12,0,0,1-1.43.67l-.84.09a1.53,1.53,0,0,0-.4.12c-.17.06-.25.15-.25.26s.17.22.52.22a4.3,4.3,0,0,0,.72-.09,5.59,5.59,0,0,1,.73-.08,1.93,1.93,0,0,1,1.32.41,1.38,1.38,0,0,1,.48,1.12,1.48,1.48,0,0,1-.72,1.28A3.06,3.06,0,0,1,54,216a3.6,3.6,0,0,1-1.17-.2A3.33,3.33,0,0,1,51.87,215.33ZM54,208.72a1.1,1.1,0,0,0-.87.37,1.38,1.38,0,0,0-.34.92,1.48,1.48,0,0,0,.33,1,1.07,1.07,0,0,0,.88.4,1,1,0,0,0,.85-.39,1.57,1.57,0,0,0,.3-1,1.37,1.37,0,0,0-.33-.92A1,1,0,0,0,54,208.72Z"/><path class="cls-6" d="M61.15,213.76v-3.62a1.49,1.49,0,0,0-.32-1,1.1,1.1,0,0,0-.89-.37,1.49,1.49,0,0,0-.74.21,2,2,0,0,0-.58.51v4.28h-1v-8.11h1v3a1.56,1.56,0,0,1,.66-.53,2.22,2.22,0,0,1,.94-.21,1.78,1.78,0,0,1,1.43.6,2.41,2.41,0,0,1,.52,1.64v3.62Z"/><path class="cls-6" d="M64,208.81h-.67V208H64v-1.2l1-.39V208h1.58v.81H65v2.86a1.72,1.72,0,0,0,.24,1,1,1,0,0,0,.79.3,1.91,1.91,0,0,0,.81-.19l.15.89a5.47,5.47,0,0,1-1.39.16,1.49,1.49,0,0,1-1.15-.5,1.84,1.84,0,0,1-.47-1.28Z"/><path class="cls-6" d="M67.6,213.41l.36-1a2.78,2.78,0,0,0,1.37.55c.63,0,1-.26,1-.79,0-.38-.3-.71-.91-1a6.8,6.8,0,0,1-1-.49,2.21,2.21,0,0,1-.43-.37,1.42,1.42,0,0,1-.26-.46,1.44,1.44,0,0,1-.09-.51,1.34,1.34,0,0,1,.51-1.11,2.2,2.2,0,0,1,1.35-.39,4.43,4.43,0,0,1,1.59.39l-.29,1a2,2,0,0,0-1.22-.48,1,1,0,0,0-.62.17.5.5,0,0,0-.25.43.91.91,0,0,0,.63.84l.73.33a2.69,2.69,0,0,1,1,.7,1.58,1.58,0,0,1,.3,1,1.49,1.49,0,0,1-.54,1.21,2.33,2.33,0,0,1-1.5.43A3.41,3.41,0,0,1,67.6,213.41Z"/><path class="cls-6" d="M73.6,212.25a.8.8,0,0,1,.81.8.78.78,0,0,1-.24.58.81.81,0,0,1-1.13,0,.81.81,0,0,1,0-1.15A.77.77,0,0,1,73.6,212.25Z"/><path class="cls-6" d="M7.87,222.94l.67-.56H15v6.82l-.58.67H7.87Zm6.33,6.46v-6.21H8.33v6.21Z"/><path class="cls-6" d="M21.58,222.85V225h2.6V226h-2.6v2.84h3.57v1H20.51v-7.87h4.7v1Z"/><path class="cls-6" d="M29.82,229.76l-1.56-2.1-1.41,2.1H25.66l2.09-2.95L25.83,224H27l1.29,2,1.45-2h1.12l-2.08,2.81L31,229.76Z"/><path class="cls-6" d="M32.2,224.81h-.67V224h.67v-1.2l1-.39V224H34.8v.81H33.22v2.86a1.7,1.7,0,0,0,.24,1,1,1,0,0,0,.79.3,1.91,1.91,0,0,0,.81-.19l.15.89a5.47,5.47,0,0,1-1.39.16,1.49,1.49,0,0,1-1.15-.5,1.79,1.79,0,0,1-.47-1.28Z"/><path class="cls-6" d="M39.32,225a1.13,1.13,0,0,0-.67-.23,1.18,1.18,0,0,0-.95.5,1.83,1.83,0,0,0-.4,1.2v3.3h-1V224h1v.92a1.78,1.78,0,0,1,1.66-1,4.86,4.86,0,0,1,.78.09Z"/><path class="cls-6" d="M43.72,229.1a2.26,2.26,0,0,1-1.88.76,1.59,1.59,0,0,1-1.17-.49,1.65,1.65,0,0,1-.5-1.22,1.83,1.83,0,0,1,.77-1.48,3.06,3.06,0,0,1,2-.6,2.08,2.08,0,0,1,.73.14c0-.93-.41-1.4-1.24-1.4a2,2,0,0,0-1.48.52l-.42-.86a2.39,2.39,0,0,1,.8-.4,2.93,2.93,0,0,1,1-.17,2,2,0,0,1,2.38,2.38v2.06a1.06,1.06,0,0,0,.45,1v.51a1.91,1.91,0,0,1-.93-.18A1,1,0,0,1,43.72,229.1Zm-.1-2.17a4,4,0,0,0-.67-.11,2,2,0,0,0-1.27.4,1.21,1.21,0,0,0-.49.94c0,.6.36.9,1.06.9a1.73,1.73,0,0,0,1.37-.74Z"/><path class="cls-6" d="M50.43,229.34l-.36.52h-.51v-8.21h1v2.78a1.31,1.31,0,0,1,.55-.37,2.06,2.06,0,0,1,.79-.16,2.46,2.46,0,0,1,1.91.81,3,3,0,0,1,.73,2.07,3.27,3.27,0,0,1-.73,2.26,2.54,2.54,0,0,1-2,.82,2.22,2.22,0,0,1-.8-.15A1.58,1.58,0,0,1,50.43,229.34Zm.15-4.13v3.32c0,.05.13.15.38.28a1.45,1.45,0,0,0,.58.19,1.91,1.91,0,0,0,1.5-.5,2.47,2.47,0,0,0,.45-1.67A2.14,2.14,0,0,0,53,225.3a1.88,1.88,0,0,0-1.42-.54,1.32,1.32,0,0,0-.52.16A1.22,1.22,0,0,0,50.58,225.21Z"/><path class="cls-6" d="M58.94,229.1a2.25,2.25,0,0,1-1.87.76,1.62,1.62,0,0,1-1.18-.49,1.64,1.64,0,0,1-.49-1.22,1.82,1.82,0,0,1,.76-1.48,3.06,3.06,0,0,1,2-.6,2.08,2.08,0,0,1,.73.14c0-.93-.41-1.4-1.24-1.4a2,2,0,0,0-1.47.52l-.43-.86a2.39,2.39,0,0,1,.8-.4,2.93,2.93,0,0,1,1-.17,2.5,2.5,0,0,1,1.82.57,2.47,2.47,0,0,1,.56,1.81v2.06a1.07,1.07,0,0,0,.46,1v.51a1.93,1.93,0,0,1-.94-.18A1,1,0,0,1,58.94,229.1Zm-.1-2.17a3.83,3.83,0,0,0-.67-.11,1.94,1.94,0,0,0-1.26.4,1.18,1.18,0,0,0-.49.94q0,.9,1,.9a1.73,1.73,0,0,0,1.37-.74Z"/><path class="cls-6" d="M61.84,224.81h-.67V224h.67v-1.2l1-.39V224h1.58v.81H62.86v2.86a1.7,1.7,0,0,0,.24,1,1,1,0,0,0,.79.3,1.91,1.91,0,0,0,.81-.19l.15.89a5.53,5.53,0,0,1-1.39.16,1.48,1.48,0,0,1-1.15-.5,1.79,1.79,0,0,1-.47-1.28Z"/><path class="cls-6" d="M66.2,224.81h-.67V224h.67v-1.2l1-.39V224H68.8v.81H67.22v2.86a1.7,1.7,0,0,0,.24,1,1,1,0,0,0,.79.3,1.91,1.91,0,0,0,.81-.19l.15.89a5.53,5.53,0,0,1-1.39.16,1.48,1.48,0,0,1-1.15-.5,1.79,1.79,0,0,1-.47-1.28Z"/><path class="cls-6" d="M75,227H70.89a2.11,2.11,0,0,0,.55,1.55,1.73,1.73,0,0,0,1.26.47,2.17,2.17,0,0,0,1.46-.5l.43.73a2,2,0,0,1-.72.41,4,4,0,0,1-1.37.22,2.55,2.55,0,0,1-1.84-.73,2.89,2.89,0,0,1-.84-2.18,3.08,3.08,0,0,1,.86-2.28,2.5,2.5,0,0,1,1.83-.77,2.62,2.62,0,0,1,1.93.69,2.37,2.37,0,0,1,.68,1.77A2.45,2.45,0,0,1,75,227Zm-2.48-2.22a1.61,1.61,0,0,0-1.64,1.48H74.1a1.47,1.47,0,0,0-.38-1A1.53,1.53,0,0,0,72.56,224.76Z"/><path class="cls-6" d="M79.32,225a1.13,1.13,0,0,0-.67-.23,1.18,1.18,0,0,0-1,.5,1.84,1.84,0,0,0-.41,1.2v3.3h-1V224h1v.92a1.8,1.8,0,0,1,1.66-1,4.84,4.84,0,0,1,.79.09Z"/><path class="cls-6" d="M81,229.76v-4.9h-.79V224H82v5.76Zm.56-7.93A.61.61,0,0,1,82,222a.65.65,0,0,1,0,.9.61.61,0,0,1-.45.18.6.6,0,0,1-.44-.18.61.61,0,0,1-.19-.45.58.58,0,0,1,.19-.45A.6.6,0,0,1,81.52,221.83Z"/><path class="cls-6" d="M88.45,227H84.3a2.07,2.07,0,0,0,.56,1.55,1.69,1.69,0,0,0,1.25.47,2.17,2.17,0,0,0,1.46-.5l.43.73a1.92,1.92,0,0,1-.72.41,3.94,3.94,0,0,1-1.37.22,2.55,2.55,0,0,1-1.84-.73,2.89,2.89,0,0,1-.84-2.18,3.08,3.08,0,0,1,.86-2.28,2.5,2.5,0,0,1,1.84-.77,2.6,2.6,0,0,1,1.92.69,2.37,2.37,0,0,1,.68,1.77A2.45,2.45,0,0,1,88.45,227ZM86,224.76a1.57,1.57,0,0,0-1.14.44,1.61,1.61,0,0,0-.5,1h3.19a1.44,1.44,0,0,0-.39-1A1.51,1.51,0,0,0,86,224.76Z"/><path class="cls-6" d="M89.23,229.41l.36-1A2.78,2.78,0,0,0,91,229c.63,0,1-.26,1-.79,0-.38-.31-.71-.91-1a6.8,6.8,0,0,1-1-.49,2,2,0,0,1-.43-.37,1.68,1.68,0,0,1-.27-.46,1.7,1.7,0,0,1-.08-.51,1.34,1.34,0,0,1,.51-1.11,2.18,2.18,0,0,1,1.35-.39,4.34,4.34,0,0,1,1.58.39l-.29,1a2,2,0,0,0-1.21-.48,1,1,0,0,0-.62.17.5.5,0,0,0-.25.43.91.91,0,0,0,.63.84l.73.33a2.69,2.69,0,0,1,1,.7,1.58,1.58,0,0,1,.3,1,1.49,1.49,0,0,1-.54,1.21,2.33,2.33,0,0,1-1.5.43A3.41,3.41,0,0,1,89.23,229.41Z"/><path class="cls-6" d="M95.23,228.25a.8.8,0,0,1,.81.8.78.78,0,0,1-.24.58.78.78,0,0,1-.57.23.81.81,0,1,1,0-1.61Z"/><path class="cls-6" d="M7.85,238.94l.68-.56H15v6.82l-.57.67H7.85Zm6.34,6.46v-6.21H8.32v6.21Z"/><path class="cls-6" d="M20.13,245.76v-7.87h1.08v7.87Z"/><path class="cls-6" d="M29.59,245.76v-3.64c0-.91-.4-1.36-1.18-1.36a1.16,1.16,0,0,0-.69.22,1.24,1.24,0,0,0-.44.52v4.26h-1v-4.09a.81.81,0,0,0-.32-.67,1.4,1.4,0,0,0-.85-.24,1.14,1.14,0,0,0-.65.23,1.4,1.4,0,0,0-.49.52v4.25h-1V240h.66l.34.67a1.8,1.8,0,0,1,1.48-.77,1.89,1.89,0,0,1,1.73.77,1.23,1.23,0,0,1,.64-.55,2.17,2.17,0,0,1,1-.22,1.77,1.77,0,0,1,1.38.53,2.11,2.11,0,0,1,.49,1.48v3.85Z"/><path class="cls-6" d="M33.08,245.44V248h-1v-8h1v.48a1.88,1.88,0,0,1,1.4-.58,2.43,2.43,0,0,1,1.91.76,3.27,3.27,0,0,1,.68,2.23,3.22,3.22,0,0,1-.69,2.14,2.42,2.42,0,0,1-2,.83,2.85,2.85,0,0,1-.78-.12A1,1,0,0,1,33.08,245.44Zm0-4.19v3.35a.87.87,0,0,0,.41.27,1.48,1.48,0,0,0,.6.13c1.27,0,1.9-.71,1.9-2.14a2.37,2.37,0,0,0-.45-1.6,1.83,1.83,0,0,0-1.44-.5,1.3,1.3,0,0,0-.53.15A1.57,1.57,0,0,0,33.08,241.25Z"/><path class="cls-6" d="M37.81,242.87a3.12,3.12,0,0,1,.72-2.15,2.35,2.35,0,0,1,1.88-.82,2.4,2.4,0,0,1,1.92.78,3.84,3.84,0,0,1,0,4.38,2.67,2.67,0,0,1-3.82,0A3.26,3.26,0,0,1,37.81,242.87Zm1.07,0q0,2.16,1.53,2.16a1.28,1.28,0,0,0,1.12-.58,2.7,2.7,0,0,0,.41-1.58c0-1.43-.51-2.14-1.53-2.14a1.31,1.31,0,0,0-1.11.57A2.59,2.59,0,0,0,38.88,242.87Z"/><path class="cls-6" d="M47.21,241a1.11,1.11,0,0,0-.67-.23,1.2,1.2,0,0,0-.95.5,1.83,1.83,0,0,0-.4,1.2v3.3h-1V240h1v.92a1.79,1.79,0,0,1,1.66-1,5.08,5.08,0,0,1,.79.09Z"/><path class="cls-6" d="M48.73,240.81h-.67V240h.67v-1.2l1-.39V240h1.58v.81H49.75v2.86a1.7,1.7,0,0,0,.24,1,1,1,0,0,0,.79.3,1.91,1.91,0,0,0,.81-.19l.15.89a5.47,5.47,0,0,1-1.39.16,1.49,1.49,0,0,1-1.15-.5,1.84,1.84,0,0,1-.47-1.28Z"/><path class="cls-6" d="M56,245.1a2.24,2.24,0,0,1-1.87.76,1.59,1.59,0,0,1-1.17-.49,1.65,1.65,0,0,1-.5-1.22,1.8,1.8,0,0,1,.77-1.48,3.06,3.06,0,0,1,1.95-.6,2.12,2.12,0,0,1,.73.14c0-.93-.42-1.4-1.25-1.4a2,2,0,0,0-1.47.52l-.43-.86a2.39,2.39,0,0,1,.8-.4,3,3,0,0,1,1-.17,2.06,2.06,0,0,1,2.39,2.38v2.06a1.06,1.06,0,0,0,.45,1v.51a1.86,1.86,0,0,1-.93-.18A1,1,0,0,1,56,245.1Zm-.09-2.17a3.9,3.9,0,0,0-.68-.11,2,2,0,0,0-1.26.4,1.18,1.18,0,0,0-.49.94c0,.6.35.9,1.06.9a1.76,1.76,0,0,0,1.37-.74Z"/><path class="cls-6" d="M62,245.76v-3.35a2.29,2.29,0,0,0-.27-1.29,1.12,1.12,0,0,0-.93-.36,1.51,1.51,0,0,0-.73.21,1.75,1.75,0,0,0-.59.51v4.28h-1V240h.7l.32.75a1.77,1.77,0,0,1,1.65-.85c1.26,0,1.89.76,1.89,2.3v3.56Z"/><path class="cls-6" d="M64.88,240.81h-.67V240h.67v-1.2l1-.39V240h1.58v.81H65.9v2.86a1.62,1.62,0,0,0,.25,1,.94.94,0,0,0,.78.3,1.91,1.91,0,0,0,.81-.19l.15.89a5.47,5.47,0,0,1-1.39.16,1.49,1.49,0,0,1-1.15-.5,1.84,1.84,0,0,1-.47-1.28Z"/><path class="cls-6" d="M75.84,245.75v-.42a2.12,2.12,0,0,1-1.55.53,2.2,2.2,0,0,1-1.75-.78,3,3,0,0,1-.67-2.06,3.34,3.34,0,0,1,.77-2.21,2.34,2.34,0,0,1,1.84-.91,2,2,0,0,1,1.36.42v-2.67h1v8.1Zm0-4.41a1.2,1.2,0,0,0-1.06-.58,1.64,1.64,0,0,0-1.33.61,2.36,2.36,0,0,0-.51,1.56q0,2.07,1.89,2.07a1.46,1.46,0,0,0,.58-.15.87.87,0,0,0,.43-.32Z"/><path class="cls-6" d="M77.94,242.87a3.12,3.12,0,0,1,.72-2.15,2.66,2.66,0,0,1,3.8,0,3.8,3.8,0,0,1,0,4.38,2.67,2.67,0,0,1-3.82,0A3.26,3.26,0,0,1,77.94,242.87Zm1.08,0Q79,245,80.55,245a1.29,1.29,0,0,0,1.12-.58,2.7,2.7,0,0,0,.4-1.58c0-1.43-.51-2.14-1.52-2.14a1.32,1.32,0,0,0-1.12.57A2.66,2.66,0,0,0,79,242.87Z"/><path class="cls-6" d="M88.56,240.47l-.5.72a1.61,1.61,0,0,0-.55-.29,2.22,2.22,0,0,0-.78-.14,1.61,1.61,0,0,0-1.32.58,2.39,2.39,0,0,0-.49,1.6,2.19,2.19,0,0,0,.5,1.54,1.8,1.8,0,0,0,1.38.52,2.25,2.25,0,0,0,1.39-.53l.4.86a3.59,3.59,0,0,1-2,.53,2.63,2.63,0,0,1-2-.78,3,3,0,0,1-.76-2.14,3.05,3.05,0,0,1,.79-2.21,2.86,2.86,0,0,1,2.19-.83,2.94,2.94,0,0,1,1,.18A2.85,2.85,0,0,1,88.56,240.47Z"/><path class="cls-6" d="M90.63,240v3.67c0,.89.39,1.33,1.16,1.33a1.52,1.52,0,0,0,.92-.29,1.36,1.36,0,0,0,.56-.67v-4h1v5.76h-1V245a1.64,1.64,0,0,1-.69.62,2.12,2.12,0,0,1-1,.28,1.86,1.86,0,0,1-1.44-.54,2.15,2.15,0,0,1-.51-1.54V240Z"/><path class="cls-6" d="M102.34,245.76v-3.64c0-.91-.39-1.36-1.18-1.36a1.16,1.16,0,0,0-.69.22,1.24,1.24,0,0,0-.44.52v4.26H99v-4.09a.81.81,0,0,0-.32-.67,1.38,1.38,0,0,0-.85-.24,1.14,1.14,0,0,0-.65.23,1.4,1.4,0,0,0-.49.52v4.25h-1V240h.66l.34.67a1.82,1.82,0,0,1,1.48-.77,1.89,1.89,0,0,1,1.73.77,1.27,1.27,0,0,1,.64-.55,2.17,2.17,0,0,1,1-.22,1.77,1.77,0,0,1,1.38.53,2.07,2.07,0,0,1,.49,1.48v3.85Z"/><path class="cls-6" d="M109.65,243h-4.14a2.07,2.07,0,0,0,.55,1.55,1.71,1.71,0,0,0,1.26.47,2.19,2.19,0,0,0,1.46-.5l.43.73a2,2,0,0,1-.73.41,3.92,3.92,0,0,1-1.36.22,2.52,2.52,0,0,1-1.84-.73,2.86,2.86,0,0,1-.85-2.18,3.05,3.05,0,0,1,.87-2.28,2.46,2.46,0,0,1,1.83-.77,2.64,2.64,0,0,1,1.93.69,2.36,2.36,0,0,1,.67,1.77A2.07,2.07,0,0,1,109.65,243Zm-2.47-2.22a1.58,1.58,0,0,0-1.15.44,1.61,1.61,0,0,0-.5,1h3.19a1.44,1.44,0,0,0-.39-1A1.51,1.51,0,0,0,107.18,240.76Z"/><path class="cls-6" d="M114.35,245.76v-3.35a2.2,2.2,0,0,0-.28-1.29,1.09,1.09,0,0,0-.93-.36,1.54,1.54,0,0,0-.73.21,1.62,1.62,0,0,0-.58.51v4.28h-1V240h.7l.32.75a1.76,1.76,0,0,1,1.65-.85c1.26,0,1.89.76,1.89,2.3v3.56Z"/><path class="cls-6" d="M117.18,240.81h-.66V240h.66v-1.2l1-.39V240h1.57v.81h-1.57v2.86a1.7,1.7,0,0,0,.24,1,1,1,0,0,0,.79.3,1.91,1.91,0,0,0,.81-.19l.15.89a5.58,5.58,0,0,1-1.39.16,1.52,1.52,0,0,1-1.16-.5,1.84,1.84,0,0,1-.47-1.28Z"/><path class="cls-6" d="M120.8,245.41l.36-1a2.77,2.77,0,0,0,1.38.55c.63,0,.94-.26.94-.79,0-.38-.3-.71-.91-1a7.46,7.46,0,0,1-.95-.49,2.14,2.14,0,0,1-.42-.37,1.68,1.68,0,0,1-.27-.46,1.44,1.44,0,0,1-.09-.51,1.32,1.32,0,0,1,.52-1.11,2.16,2.16,0,0,1,1.35-.39,4.39,4.39,0,0,1,1.58.39l-.29,1a2,2,0,0,0-1.22-.48,1,1,0,0,0-.61.17.5.5,0,0,0-.25.43.91.91,0,0,0,.62.84l.74.33a2.64,2.64,0,0,1,1,.7,1.52,1.52,0,0,1,.31,1,1.49,1.49,0,0,1-.54,1.21,2.38,2.38,0,0,1-1.51.43A3.47,3.47,0,0,1,120.8,245.41Z"/><path class="cls-6" d="M126.81,239.9a.81.81,0,0,1,.57.23.78.78,0,0,1,.24.57.76.76,0,0,1-.24.57.8.8,0,0,1-1.14,0,.76.76,0,0,1-.24-.57.78.78,0,0,1,.24-.57A.81.81,0,0,1,126.81,239.9Zm0,4.35a.81.81,0,0,1,.57.23.81.81,0,0,1,0,1.15.82.82,0,0,1-1.14,0,.81.81,0,0,1,0-1.15A.81.81,0,0,1,126.81,244.25Z"/><path class="cls-6" d="M133.48,245.76v-4.9h-.79V240h1.81v5.76Zm.56-7.93a.63.63,0,1,1,0,1.26.6.6,0,0,1-.44-.18.64.64,0,0,1,0-.9A.63.63,0,0,1,134,237.83Z"/><path class="cls-6" d="M139.66,245.76v-3.35a2.29,2.29,0,0,0-.27-1.29,1.12,1.12,0,0,0-.93-.36,1.51,1.51,0,0,0-.73.21,1.75,1.75,0,0,0-.59.51v4.28h-1V240h.7l.32.75a1.77,1.77,0,0,1,1.65-.85c1.26,0,1.89.76,1.89,2.3v3.56Z"/><path class="cls-6" d="M141.76,245.41l.36-1a2.75,2.75,0,0,0,1.37.55c.63,0,.95-.26.95-.79,0-.38-.31-.71-.92-1a7.14,7.14,0,0,1-.94-.49,2,2,0,0,1-.43-.37,1.68,1.68,0,0,1-.27-.46,1.44,1.44,0,0,1-.09-.51,1.35,1.35,0,0,1,.52-1.11,2.16,2.16,0,0,1,1.35-.39,4.34,4.34,0,0,1,1.58.39l-.29,1a2,2,0,0,0-1.22-.48,1,1,0,0,0-.61.17.5.5,0,0,0-.25.43.91.91,0,0,0,.63.84l.73.33a2.69,2.69,0,0,1,1,.7,1.58,1.58,0,0,1,.3,1,1.49,1.49,0,0,1-.54,1.21,2.34,2.34,0,0,1-1.51.43A3.41,3.41,0,0,1,141.76,245.41Z"/><path class="cls-6" d="M147.55,240v3.67c0,.89.39,1.33,1.16,1.33a1.55,1.55,0,0,0,.92-.29,1.36,1.36,0,0,0,.56-.67v-4h1v5.76h-1V245a1.64,1.64,0,0,1-.69.62,2.12,2.12,0,0,1-1,.28,1.86,1.86,0,0,1-1.44-.54,2.15,2.15,0,0,1-.51-1.54V240Z"/><path class="cls-6" d="M155.72,241a1.11,1.11,0,0,0-.67-.23,1.18,1.18,0,0,0-1,.5,1.83,1.83,0,0,0-.4,1.2v3.3h-1V240h1v.92a1.78,1.78,0,0,1,1.66-1,5.08,5.08,0,0,1,.79.09Z"/><path class="cls-6" d="M157,243v-.94h2.3V243Z"/><path class="cls-6" d="M24.26,261.1a2.25,2.25,0,0,1-1.87.76,1.6,1.6,0,0,1-1.18-.49,1.65,1.65,0,0,1-.5-1.22,1.83,1.83,0,0,1,.77-1.48,3.06,3.06,0,0,1,1.95-.6,2.08,2.08,0,0,1,.73.14c0-.93-.41-1.4-1.24-1.4a2,2,0,0,0-1.47.52l-.43-.86a2.39,2.39,0,0,1,.8-.4,2.93,2.93,0,0,1,1-.17,2.5,2.5,0,0,1,1.82.57,2.51,2.51,0,0,1,.56,1.81v2.06a1.06,1.06,0,0,0,.45,1v.51a1.91,1.91,0,0,1-.93-.18A1,1,0,0,1,24.26,261.1Zm-.1-2.17a3.83,3.83,0,0,0-.67-.11,2,2,0,0,0-1.27.4,1.2,1.2,0,0,0-.48.94q0,.9,1.05.9a1.73,1.73,0,0,0,1.37-.74Z"/><path class="cls-6" d="M30.33,261.76v-3.35a2.2,2.2,0,0,0-.28-1.29,1.08,1.08,0,0,0-.92-.36,1.48,1.48,0,0,0-.73.21,1.66,1.66,0,0,0-.59.51v4.28h-1V256h.7l.32.75a1.77,1.77,0,0,1,1.65-.85c1.26,0,1.89.76,1.89,2.3v3.56Z"/><path class="cls-6" d="M37.14,256.47l-.51.72a1.43,1.43,0,0,0-.55-.29,2.13,2.13,0,0,0-.77-.14,1.61,1.61,0,0,0-1.32.58,2.39,2.39,0,0,0-.49,1.6,2.15,2.15,0,0,0,.5,1.54,1.8,1.8,0,0,0,1.38.52,2.27,2.27,0,0,0,1.39-.53l.4.86a3.61,3.61,0,0,1-2,.53,2.61,2.61,0,0,1-2-.78,3,3,0,0,1-.77-2.14,3.06,3.06,0,0,1,.8-2.21,2.86,2.86,0,0,1,2.18-.83,3,3,0,0,1,1,.18A2.85,2.85,0,0,1,37.14,256.47Z"/><path class="cls-6" d="M43.09,259H38.94a2.07,2.07,0,0,0,.56,1.55,1.69,1.69,0,0,0,1.25.47,2.2,2.2,0,0,0,1.47-.5l.43.73a2,2,0,0,1-.73.41,3.92,3.92,0,0,1-1.36.22,2.56,2.56,0,0,1-1.85-.73,2.89,2.89,0,0,1-.84-2.18,3.08,3.08,0,0,1,.86-2.28,2.5,2.5,0,0,1,1.84-.77,2.6,2.6,0,0,1,1.92.69,2.33,2.33,0,0,1,.68,1.77A2.45,2.45,0,0,1,43.09,259Zm-2.48-2.22a1.57,1.57,0,0,0-1.14.44,1.61,1.61,0,0,0-.5,1h3.19a1.44,1.44,0,0,0-.39-1A1.51,1.51,0,0,0,40.61,256.76Z"/><path class="cls-6" d="M48.58,261.44V264h-1v-8h1v.48a1.89,1.89,0,0,1,1.4-.58,2.43,2.43,0,0,1,1.91.76,3.27,3.27,0,0,1,.68,2.23,3.22,3.22,0,0,1-.69,2.14,2.41,2.41,0,0,1-2,.83,2.86,2.86,0,0,1-.79-.12A1.1,1.1,0,0,1,48.58,261.44Zm0-4.19v3.35a.87.87,0,0,0,.41.27,1.52,1.52,0,0,0,.61.13c1.26,0,1.9-.71,1.9-2.14a2.37,2.37,0,0,0-.45-1.6,1.86,1.86,0,0,0-1.45-.5,1.3,1.3,0,0,0-.53.15A1.69,1.69,0,0,0,48.58,257.25Z"/><path class="cls-6" d="M56.94,261.1a2.27,2.27,0,0,1-1.88.76,1.59,1.59,0,0,1-1.17-.49,1.65,1.65,0,0,1-.5-1.22,1.83,1.83,0,0,1,.77-1.48,3.06,3.06,0,0,1,2-.6,2.08,2.08,0,0,1,.73.14c0-.93-.41-1.4-1.25-1.4a2,2,0,0,0-1.47.52l-.43-.86a2.45,2.45,0,0,1,.81-.4,2.93,2.93,0,0,1,1-.17,2.05,2.05,0,0,1,2.38,2.38v2.06a1.06,1.06,0,0,0,.45,1v.51a1.91,1.91,0,0,1-.93-.18A1,1,0,0,1,56.94,261.1Zm-.1-2.17a3.9,3.9,0,0,0-.68-.11,2,2,0,0,0-1.26.4,1.21,1.21,0,0,0-.49.94c0,.6.36.9,1.06.9a1.74,1.74,0,0,0,1.37-.74Z"/><path class="cls-6" d="M60.49,261.44V264h-1v-8h1v.48a1.88,1.88,0,0,1,1.4-.58,2.43,2.43,0,0,1,1.91.76,3.27,3.27,0,0,1,.68,2.23,3.22,3.22,0,0,1-.69,2.14,2.42,2.42,0,0,1-2,.83,2.85,2.85,0,0,1-.78-.12A1,1,0,0,1,60.49,261.44Zm0-4.19v3.35a.87.87,0,0,0,.41.27,1.48,1.48,0,0,0,.6.13c1.27,0,1.9-.71,1.9-2.14a2.37,2.37,0,0,0-.45-1.6,1.83,1.83,0,0,0-1.44-.5,1.3,1.3,0,0,0-.53.15A1.57,1.57,0,0,0,60.49,257.25Z"/><path class="cls-6" d="M70.44,259H66.29a2.07,2.07,0,0,0,.56,1.55,1.69,1.69,0,0,0,1.25.47,2.17,2.17,0,0,0,1.46-.5l.43.73a1.84,1.84,0,0,1-.72.41,3.92,3.92,0,0,1-1.36.22,2.56,2.56,0,0,1-1.85-.73,2.89,2.89,0,0,1-.84-2.18,3.08,3.08,0,0,1,.86-2.28,2.5,2.5,0,0,1,1.84-.77,2.6,2.6,0,0,1,1.92.69,2.33,2.33,0,0,1,.68,1.77A2.45,2.45,0,0,1,70.44,259ZM68,256.76a1.57,1.57,0,0,0-1.14.44,1.61,1.61,0,0,0-.5,1h3.19a1.44,1.44,0,0,0-.39-1A1.51,1.51,0,0,0,68,256.76Z"/><path class="cls-6" d="M74.72,257a1.11,1.11,0,0,0-.67-.23,1.18,1.18,0,0,0-1,.5,1.83,1.83,0,0,0-.4,1.2v3.3h-1V256h1v.92a1.78,1.78,0,0,1,1.66-1,5.08,5.08,0,0,1,.79.09Z"/><path class="cls-6" d="M75.49,261.41l.36-1a2.77,2.77,0,0,0,1.38.55c.63,0,.94-.26.94-.79,0-.38-.3-.71-.91-1a7.46,7.46,0,0,1-1-.49,2.14,2.14,0,0,1-.42-.37,1.68,1.68,0,0,1-.27-.46,1.44,1.44,0,0,1-.09-.51,1.32,1.32,0,0,1,.52-1.11,2.16,2.16,0,0,1,1.35-.39,4.44,4.44,0,0,1,1.58.39l-.29.95a2,2,0,0,0-1.22-.48,1,1,0,0,0-.61.17.5.5,0,0,0-.25.43.91.91,0,0,0,.62.84l.74.33a2.64,2.64,0,0,1,1,.7,1.52,1.52,0,0,1,.31,1,1.49,1.49,0,0,1-.54,1.21,2.38,2.38,0,0,1-1.51.43A3.47,3.47,0,0,1,75.49,261.41Z"/><path class="cls-6" d="M80.8,263.71l-.27-.39c.61-.5.92-.93.92-1.29a.81.81,0,0,0-.16-.47.69.69,0,0,1-.46-.64.59.59,0,0,1,.22-.47.85.85,0,0,1,.55-.18.67.67,0,0,1,.53.26.84.84,0,0,1,.23.6,2.78,2.78,0,0,1-.29,1.29A4.3,4.3,0,0,1,80.8,263.71Z"/><path class="cls-6" d="M94.34,261.76v-3.64c0-.91-.4-1.36-1.18-1.36a1.16,1.16,0,0,0-.69.22,1.24,1.24,0,0,0-.44.52v4.26H91v-4.09a.81.81,0,0,0-.32-.67,1.4,1.4,0,0,0-.85-.24,1.14,1.14,0,0,0-.65.23,1.4,1.4,0,0,0-.49.52v4.25h-1V256h.66l.34.67a1.8,1.8,0,0,1,1.48-.77,1.89,1.89,0,0,1,1.73.77,1.23,1.23,0,0,1,.64-.55,2.17,2.17,0,0,1,1-.22,1.77,1.77,0,0,1,1.38.53,2.11,2.11,0,0,1,.49,1.48v3.85Z"/><path class="cls-6" d="M101.65,259H97.51a2.07,2.07,0,0,0,.55,1.55,1.7,1.7,0,0,0,1.26.47,2.19,2.19,0,0,0,1.46-.5l.43.73a2,2,0,0,1-.73.41,3.92,3.92,0,0,1-1.36.22,2.56,2.56,0,0,1-1.85-.73,2.89,2.89,0,0,1-.84-2.18,3.05,3.05,0,0,1,.87-2.28,2.46,2.46,0,0,1,1.83-.77,2.64,2.64,0,0,1,1.93.69,2.36,2.36,0,0,1,.67,1.77A2.07,2.07,0,0,1,101.65,259Zm-2.47-2.22a1.58,1.58,0,0,0-1.15.44,1.61,1.61,0,0,0-.5,1h3.19a1.44,1.44,0,0,0-.39-1A1.51,1.51,0,0,0,99.18,256.76Z"/><path class="cls-6" d="M106.45,261.75v-.42a2.1,2.1,0,0,1-1.54.53,2.19,2.19,0,0,1-1.75-.78,3,3,0,0,1-.68-2.06,3.3,3.3,0,0,1,.78-2.21,2.33,2.33,0,0,1,1.84-.91,1.92,1.92,0,0,1,1.35.42v-2.67h1v8.1Zm0-4.41a1.19,1.19,0,0,0-1-.58,1.62,1.62,0,0,0-1.33.61,2.36,2.36,0,0,0-.51,1.56q0,2.07,1.89,2.07a1.5,1.5,0,0,0,.58-.15.79.79,0,0,0,.42-.32Z"/><path class="cls-6" d="M109.43,261.76v-4.9h-.79V256h1.81v5.76Zm.56-7.93a.64.64,0,1,1-.63.63.62.62,0,0,1,.63-.63Z"/><path class="cls-6" d="M116.41,256.47l-.5.72a1.61,1.61,0,0,0-.55-.29,2.22,2.22,0,0,0-.78-.14,1.62,1.62,0,0,0-1.32.58,2.39,2.39,0,0,0-.49,1.6,2.19,2.19,0,0,0,.5,1.54,1.81,1.81,0,0,0,1.39.52,2.24,2.24,0,0,0,1.38-.53l.4.86a3.59,3.59,0,0,1-2,.53,2.63,2.63,0,0,1-2-.78,3,3,0,0,1-.76-2.14,3.05,3.05,0,0,1,.79-2.21,2.88,2.88,0,0,1,2.19-.83,2.94,2.94,0,0,1,1,.18A2.85,2.85,0,0,1,116.41,256.47Z"/><path class="cls-6" d="M120.77,261.1a2.27,2.27,0,0,1-1.88.76,1.59,1.59,0,0,1-1.17-.49,1.65,1.65,0,0,1-.5-1.22,1.83,1.83,0,0,1,.77-1.48,3.06,3.06,0,0,1,2-.6,2.08,2.08,0,0,1,.73.14c0-.93-.41-1.4-1.25-1.4a2,2,0,0,0-1.47.52l-.43-.86a2.45,2.45,0,0,1,.81-.4,2.93,2.93,0,0,1,1-.17,2,2,0,0,1,2.38,2.38v2.06a1.06,1.06,0,0,0,.45,1v.51a1.91,1.91,0,0,1-.93-.18A1,1,0,0,1,120.77,261.1Zm-.1-2.17a3.9,3.9,0,0,0-.68-.11,2,2,0,0,0-1.26.4,1.21,1.21,0,0,0-.49.94c0,.6.36.9,1.06.9a1.74,1.74,0,0,0,1.37-.74Z"/><path class="cls-6" d="M123.38,260.13v-6.48h1V260a1,1,0,0,0,.26.73,1,1,0,0,0,.7.26v.91C124,261.86,123.38,261.29,123.38,260.13Z"/><path class="cls-6" d="M133,257a1.11,1.11,0,0,0-.67-.23,1.18,1.18,0,0,0-.95.5,1.83,1.83,0,0,0-.4,1.2v3.3h-1V256h1v.92a1.78,1.78,0,0,1,1.66-1,5.08,5.08,0,0,1,.79.09Z"/><path class="cls-6" d="M139,259h-4.15a2.07,2.07,0,0,0,.55,1.55,1.73,1.73,0,0,0,1.26.47,2.19,2.19,0,0,0,1.46-.5l.43.73a2,2,0,0,1-.73.41,3.88,3.88,0,0,1-1.36.22,2.53,2.53,0,0,1-1.84-.73,2.89,2.89,0,0,1-.84-2.18,3,3,0,0,1,.86-2.28,2.5,2.5,0,0,1,1.83-.77,2.64,2.64,0,0,1,1.93.69,2.37,2.37,0,0,1,.68,1.77A2.45,2.45,0,0,1,139,259Zm-2.48-2.22a1.54,1.54,0,0,0-1.14.44,1.56,1.56,0,0,0-.5,1H138a1.44,1.44,0,0,0-.39-1A1.49,1.49,0,0,0,136.5,256.76Z"/><path class="cls-6" d="M144.47,256.47l-.5.72a1.61,1.61,0,0,0-.55-.29,2.22,2.22,0,0,0-.78-.14,1.61,1.61,0,0,0-1.32.58,2.39,2.39,0,0,0-.49,1.6,2.19,2.19,0,0,0,.5,1.54,1.8,1.8,0,0,0,1.38.52,2.27,2.27,0,0,0,1.39-.53l.4.86a3.59,3.59,0,0,1-2,.53,2.63,2.63,0,0,1-1.95-.78,3,3,0,0,1-.76-2.14,3.05,3.05,0,0,1,.79-2.21,2.86,2.86,0,0,1,2.19-.83,2.94,2.94,0,0,1,1,.18A2.85,2.85,0,0,1,144.47,256.47Z"/><path class="cls-6" d="M145.2,258.87a3.12,3.12,0,0,1,.72-2.15,2.66,2.66,0,0,1,3.8,0,3.8,3.8,0,0,1,0,4.38,2.67,2.67,0,0,1-3.82,0A3.26,3.26,0,0,1,145.2,258.87Zm1.08,0q0,2.16,1.53,2.16a1.29,1.29,0,0,0,1.12-.58,2.7,2.7,0,0,0,.4-1.58c0-1.43-.51-2.14-1.52-2.14a1.32,1.32,0,0,0-1.12.57A2.66,2.66,0,0,0,146.28,258.87Z"/><path class="cls-6" d="M154.61,257a1.15,1.15,0,0,0-.67-.23,1.17,1.17,0,0,0-.95.5,1.84,1.84,0,0,0-.41,1.2v3.3h-1V256h1v.92a1.79,1.79,0,0,1,1.66-1,5,5,0,0,1,.79.09Z"/><path class="cls-6" d="M159.4,261.75v-.42a2.1,2.1,0,0,1-1.54.53,2.19,2.19,0,0,1-1.75-.78,3,3,0,0,1-.68-2.06,3.3,3.3,0,0,1,.78-2.21,2.33,2.33,0,0,1,1.84-.91,1.93,1.93,0,0,1,1.35.42v-2.67h1v8.1Zm0-4.41a1.19,1.19,0,0,0-1.05-.58,1.62,1.62,0,0,0-1.33.61,2.36,2.36,0,0,0-.51,1.56q0,2.07,1.89,2.07a1.5,1.5,0,0,0,.58-.15.79.79,0,0,0,.42-.32Z"/><path class="cls-6" d="M161.51,261.41l.36-1a2.78,2.78,0,0,0,1.37.55c.63,0,.95-.26.95-.79,0-.38-.31-.71-.91-1a6.8,6.8,0,0,1-.95-.49,2.21,2.21,0,0,1-.43-.37,1.42,1.42,0,0,1-.26-.46,1.44,1.44,0,0,1-.09-.51,1.34,1.34,0,0,1,.51-1.11,2.2,2.2,0,0,1,1.35-.39,4.43,4.43,0,0,1,1.59.39l-.29.95a2,2,0,0,0-1.22-.48,1,1,0,0,0-.62.17.5.5,0,0,0-.25.43.91.91,0,0,0,.63.84l.73.33a2.69,2.69,0,0,1,1,.7,1.58,1.58,0,0,1,.3,1,1.49,1.49,0,0,1-.54,1.21,2.33,2.33,0,0,1-1.5.43A3.41,3.41,0,0,1,161.51,261.41Z"/><path class="cls-6" d="M166.82,263.71l-.28-.39q.93-.75.93-1.29a.82.82,0,0,0-.17-.47.71.71,0,0,1-.46-.64.62.62,0,0,1,.22-.47.86.86,0,0,1,.56-.18.69.69,0,0,1,.53.26.88.88,0,0,1,.23.6,2.79,2.79,0,0,1-.3,1.29A4.36,4.36,0,0,1,166.82,263.71Z"/><path class="cls-6" d="M21.87,277.34l-.36.52H21v-8.21h1v2.78a1.33,1.33,0,0,1,.54-.37,2.06,2.06,0,0,1,.79-.16,2.47,2.47,0,0,1,1.92.81,3,3,0,0,1,.73,2.07,3.27,3.27,0,0,1-.74,2.26,2.52,2.52,0,0,1-2,.82,2.22,2.22,0,0,1-.8-.15A1.44,1.44,0,0,1,21.87,277.34Zm.15-4.13v3.32c0,.05.13.15.38.28A1.41,1.41,0,0,0,23,277a1.89,1.89,0,0,0,1.49-.5,2.47,2.47,0,0,0,.45-1.67,2.13,2.13,0,0,0-.52-1.53,1.9,1.9,0,0,0-1.42-.54,1.24,1.24,0,0,0-.52.16A1.13,1.13,0,0,0,22,273.21Z"/><path class="cls-6" d="M30.38,277.1a2.27,2.27,0,0,1-1.88.76,1.59,1.59,0,0,1-1.17-.49,1.65,1.65,0,0,1-.5-1.22,1.83,1.83,0,0,1,.77-1.48,3.06,3.06,0,0,1,1.95-.6,2.12,2.12,0,0,1,.73.14c0-.93-.42-1.4-1.25-1.4a2,2,0,0,0-1.47.52l-.43-.86a2.45,2.45,0,0,1,.81-.4,2.89,2.89,0,0,1,1-.17,2.46,2.46,0,0,1,1.81.57,2.47,2.47,0,0,1,.57,1.81v2.06a1.06,1.06,0,0,0,.45,1v.51a1.91,1.91,0,0,1-.93-.18A1,1,0,0,1,30.38,277.1Zm-.1-2.17a3.9,3.9,0,0,0-.68-.11,2,2,0,0,0-1.26.4,1.21,1.21,0,0,0-.49.94c0,.6.35.9,1.06.9a1.74,1.74,0,0,0,1.37-.74Z"/><path class="cls-6" d="M36.45,277.76v-3.35a2.28,2.28,0,0,0-.28-1.29,1.1,1.1,0,0,0-.93-.36,1.54,1.54,0,0,0-.73.21,1.62,1.62,0,0,0-.58.51v4.28h-1V272h.69l.33.75a1.75,1.75,0,0,1,1.65-.85c1.26,0,1.89.76,1.89,2.3v3.56Z"/><path class="cls-6" d="M42.63,277.76l-1.8-2.88-.89.92v2h-1v-8.11h1v5l2.2-2.68h1.19l-1.84,2.19,2.25,3.57Z"/><path class="cls-6" d="M51,277.1a2.26,2.26,0,0,1-1.88.76,1.59,1.59,0,0,1-1.17-.49,1.65,1.65,0,0,1-.5-1.22,1.83,1.83,0,0,1,.77-1.48,3.06,3.06,0,0,1,2-.6,2.08,2.08,0,0,1,.73.14c0-.93-.41-1.4-1.24-1.4a2,2,0,0,0-1.48.52l-.43-.86a2.55,2.55,0,0,1,.81-.4,2.93,2.93,0,0,1,1-.17A2,2,0,0,1,52,274.28v2.06a1.06,1.06,0,0,0,.45,1v.51a1.91,1.91,0,0,1-.93-.18A1,1,0,0,1,51,277.1Zm-.1-2.17a3.9,3.9,0,0,0-.68-.11,2,2,0,0,0-1.26.4,1.21,1.21,0,0,0-.49.94c0,.6.36.9,1.06.9a1.74,1.74,0,0,0,1.37-.74Z"/><path class="cls-6" d="M57.9,272.47l-.51.72a1.43,1.43,0,0,0-.55-.29,2.13,2.13,0,0,0-.77-.14,1.61,1.61,0,0,0-1.32.58,2.39,2.39,0,0,0-.49,1.6,2.15,2.15,0,0,0,.5,1.54,1.8,1.8,0,0,0,1.38.52,2.27,2.27,0,0,0,1.39-.53l.4.86a3.64,3.64,0,0,1-2,.53,2.61,2.61,0,0,1-1.94-.78,3,3,0,0,1-.77-2.14,3.06,3.06,0,0,1,.8-2.21,2.86,2.86,0,0,1,2.18-.83,3.25,3.25,0,0,1,1.74.57Z"/><path class="cls-6" d="M63.34,272.47l-.5.72a1.52,1.52,0,0,0-.55-.29,2.14,2.14,0,0,0-.78-.14,1.64,1.64,0,0,0-1.32.58,2.45,2.45,0,0,0-.49,1.6,2.19,2.19,0,0,0,.5,1.54,1.84,1.84,0,0,0,1.39.52,2.22,2.22,0,0,0,1.38-.53l.41.86a3.64,3.64,0,0,1-2,.53,2.61,2.61,0,0,1-1.94-.78,2.91,2.91,0,0,1-.77-2.14,3,3,0,0,1,.8-2.21,2.86,2.86,0,0,1,2.18-.83,3,3,0,0,1,1,.18A2.92,2.92,0,0,1,63.34,272.47Z"/><path class="cls-6" d="M64.07,274.87a3.12,3.12,0,0,1,.72-2.15,2.38,2.38,0,0,1,1.89-.82,2.43,2.43,0,0,1,1.92.78,3.28,3.28,0,0,1,.68,2.19,3.2,3.2,0,0,1-.7,2.19,2.67,2.67,0,0,1-3.82,0A3.26,3.26,0,0,1,64.07,274.87Zm1.08,0q0,2.16,1.53,2.16a1.28,1.28,0,0,0,1.12-.58,2.7,2.7,0,0,0,.41-1.58c0-1.43-.51-2.14-1.53-2.14a1.29,1.29,0,0,0-1.11.57A2.59,2.59,0,0,0,65.15,274.87Z"/><path class="cls-6" d="M71.32,272v3.67c0,.89.39,1.33,1.16,1.33a1.55,1.55,0,0,0,.92-.29A1.34,1.34,0,0,0,74,276v-4h1v5.76H74V277a1.52,1.52,0,0,1-.69.62,2.06,2.06,0,0,1-1,.28,1.89,1.89,0,0,1-1.45-.54,2.19,2.19,0,0,1-.5-1.54V272Z"/><path class="cls-6" d="M79.9,277.76v-3.35a2.29,2.29,0,0,0-.27-1.29,1.12,1.12,0,0,0-.93-.36A1.51,1.51,0,0,0,78,273a1.75,1.75,0,0,0-.59.51v4.28h-1V272h.7l.32.75A1.77,1.77,0,0,1,79,271.9c1.26,0,1.89.76,1.89,2.3v3.56Z"/><path class="cls-6" d="M82.74,272.81h-.67V272h.67v-1.2l1-.39V272h1.58v.81H83.76v2.86a1.7,1.7,0,0,0,.24,1,1,1,0,0,0,.79.3,1.91,1.91,0,0,0,.81-.19l.15.89a5.47,5.47,0,0,1-1.39.16,1.49,1.49,0,0,1-1.15-.5,1.84,1.84,0,0,1-.47-1.28Z"/><path class="cls-6" d="M93.59,277.76v-3.35a2.2,2.2,0,0,0-.28-1.29,1.08,1.08,0,0,0-.92-.36,1.48,1.48,0,0,0-.73.21,1.66,1.66,0,0,0-.59.51v4.28h-1V272h.7l.32.75a1.77,1.77,0,0,1,1.65-.85c1.26,0,1.89.76,1.89,2.3v3.56Z"/><path class="cls-6" d="M97,272v3.67c0,.89.38,1.33,1.15,1.33a1.5,1.5,0,0,0,.92-.29,1.36,1.36,0,0,0,.56-.67v-4h1v5.76h-1V277a1.64,1.64,0,0,1-.69.62,2.09,2.09,0,0,1-1,.28,1.88,1.88,0,0,1-1.45-.54,2.15,2.15,0,0,1-.5-1.54V272Z"/><path class="cls-6" d="M108.73,277.76v-3.64c0-.91-.39-1.36-1.18-1.36a1.2,1.2,0,0,0-.69.22,1.32,1.32,0,0,0-.44.52v4.26h-1v-4.09a.81.81,0,0,0-.32-.67,1.36,1.36,0,0,0-.85-.24,1.14,1.14,0,0,0-.65.23,1.49,1.49,0,0,0-.49.52v4.25h-1V272h.67l.33.67a1.82,1.82,0,0,1,1.48-.77,1.87,1.87,0,0,1,1.73.77,1.31,1.31,0,0,1,.64-.55,2.17,2.17,0,0,1,1-.22,1.74,1.74,0,0,1,1.38.53,2.07,2.07,0,0,1,.49,1.48v3.85Z"/><path class="cls-6" d="M112.07,277.34l-.36.52h-.51v-8.21h1v2.78a1.31,1.31,0,0,1,.55-.37,2,2,0,0,1,.78-.16,2.47,2.47,0,0,1,1.92.81,3,3,0,0,1,.73,2.07,3.27,3.27,0,0,1-.73,2.26,2.56,2.56,0,0,1-2,.82,2.22,2.22,0,0,1-.8-.15A1.58,1.58,0,0,1,112.07,277.34Zm.15-4.13v3.32c0,.05.13.15.38.28a1.45,1.45,0,0,0,.58.19,1.91,1.91,0,0,0,1.5-.5,2.47,2.47,0,0,0,.45-1.67,2.14,2.14,0,0,0-.53-1.53,1.88,1.88,0,0,0-1.42-.54,1.28,1.28,0,0,0-.52.16A1.22,1.22,0,0,0,112.22,273.21Z"/><path class="cls-6" d="M122.17,275H118a2.07,2.07,0,0,0,.55,1.55,1.73,1.73,0,0,0,1.26.47,2.19,2.19,0,0,0,1.46-.5l.43.73a2,2,0,0,1-.73.41,3.92,3.92,0,0,1-1.36.22,2.53,2.53,0,0,1-1.84-.73A2.86,2.86,0,0,1,117,275a3.05,3.05,0,0,1,.87-2.28,2.46,2.46,0,0,1,1.83-.77,2.64,2.64,0,0,1,1.93.69,2.36,2.36,0,0,1,.67,1.77A2.07,2.07,0,0,1,122.17,275Zm-2.47-2.22a1.58,1.58,0,0,0-1.15.44,1.61,1.61,0,0,0-.5,1h3.19a1.44,1.44,0,0,0-.39-1A1.51,1.51,0,0,0,119.7,272.76Z"/><path class="cls-6" d="M126.46,273a1.16,1.16,0,0,0-.68-.23,1.2,1.2,0,0,0-1,.5,1.83,1.83,0,0,0-.4,1.2v3.3h-1V272h1v.92a1.79,1.79,0,0,1,1.66-1,5,5,0,0,1,.79.09Z"/><path class="cls-6" d="M127.23,277.41l.36-1A2.78,2.78,0,0,0,129,277c.63,0,.95-.26.95-.79,0-.38-.31-.71-.91-1a6.8,6.8,0,0,1-.95-.49,2,2,0,0,1-.43-.37,1.68,1.68,0,0,1-.27-.46,1.44,1.44,0,0,1-.08-.51,1.34,1.34,0,0,1,.51-1.11,2.18,2.18,0,0,1,1.35-.39,4.34,4.34,0,0,1,1.58.39l-.29.95a2,2,0,0,0-1.21-.48,1,1,0,0,0-.62.17.5.5,0,0,0-.25.43.91.91,0,0,0,.63.84l.73.33a2.69,2.69,0,0,1,1,.7,1.58,1.58,0,0,1,.3,1,1.49,1.49,0,0,1-.54,1.21,2.33,2.33,0,0,1-1.5.43A3.41,3.41,0,0,1,127.23,277.41Z"/><path class="cls-6" d="M133.23,276.25a.8.8,0,0,1,.81.8.78.78,0,0,1-.24.58.78.78,0,0,1-.57.23.81.81,0,1,1,0-1.61Z"/><rect class="cls-7" x="171" y="129.8" width="34" height="4.78"/><rect class="cls-8" x="171" y="109.62" width="34" height="20.19"/><rect class="cls-9" x="183.75" y="129.8" width="8.5" height="4.78"/><rect class="cls-7" x="173.13" y="111.74" width="29.75" height="15.94"/><rect class="cls-8" x="174.72" y="113.33" width="26.56" height="12.75"/><circle class="cls-7" cx="194.91" cy="119.71" r="4.25"/><rect class="cls-10" x="183.75" y="109.62" width="8.5" height="20.19"/><path class="cls-6" d="M179.5,119.18a1.07,1.07,0,1,1,1.06-1.06h1.07a2.11,2.11,0,0,0-1.6-2.05v-.61H179v.61a2.12,2.12,0,0,0,.53,4.17,1.07,1.07,0,1,1-1.06,1.06h-1.06a2.11,2.11,0,0,0,1.59,2V124H180v-.61a2.12,2.12,0,0,0-.53-4.17Z"/><path class="cls-11" d="M174.27,179.83c-2.76-2.75-3-7-.46-9.52l9.07-9.06,10,10-9.06,9.07C181.28,182.79,177,182.59,174.27,179.83Z"/><path class="cls-12" d="M202,163.32c2.81-2.81,2.58-7.59-.51-10.68s-7.87-3.32-10.68-.51l-6.8,6.8L182,160.88l0,0h0a1,1,0,0,0,0,1.36l9.8,9.8a1,1,0,0,0,1.36,0h0l0,0h0l1.95-1.95h0Z"/><path class="cls-13" d="M184,213.15c-4-4-8.89-5.66-10.95-3.73a10.38,10.38,0,0,1,10.13-2.5l13.76-13.76a10.45,10.45,0,0,1,7.05,7.05L190.18,214a10.38,10.38,0,0,1-2.5,10.13C189.61,222,188,217.17,184,213.15Z"/><path class="cls-14" d="M184,213.15c-3-3-7.06-3.84-9.11-1.89,2.76-2.69,6.27-3.91,9.18-3.46l13.75-13.75a6.11,6.11,0,0,1,5.28,5.28L189.3,213.08a11.27,11.27,0,0,1-3.46,9.18C187.79,220.21,187,216.16,184,213.15Z"/><path class="cls-15" d="M176.6,220.5c-4-4-5.69-9-3.69-11l.09-.08c2.07-1.93,6.93-.28,10.95,3.73s5.66,8.88,3.73,10.95l-.08.09C185.56,226.18,180.65,224.54,176.6,220.5Z"/><path class="cls-16" d="M180.1,217c-1.95-1.94-2.74-4.31-1.78-5.29l0,0c1-.93,3.34-.13,5.27,1.8s2.73,4.27,1.8,5.27l0,0C184.41,219.74,182,219,180.1,217Z"/><path class="cls-6" d="M180.51,216.59c-.91-.92-1.28-2-.83-2.48l0,0c.47-.44,1.56-.06,2.47.84s1.28,2,.84,2.47l0,0C182.53,217.87,181.43,217.5,180.51,216.59Z"/><rect class="cls-13" x="186.16" y="200" width="4.53" height="1.35" transform="translate(-86.71 191.97) rotate(-44.99)"/><rect class="cls-14" x="187.39" y="199.77" width="2.54" height="1.35" transform="translate(-86.48 192.13) rotate(-45)"/><path class="cls-17" d="M199.88,242.19l-13.07,4.54a13.72,13.72,0,0,0-.9-1.67,2.68,2.68,0,0,0-2.76-1l-10,3.24a3.87,3.87,0,0,0-1.93,2.11,6,6,0,0,0,0,3.34L177,276.1l22.87-20s.77-8.9,1.22-13C201.26,241.67,199.88,242.19,199.88,242.19Z"/><polygon class="cls-18" points="199.49 255.3 201.56 242.19 172.79 252.99 176.98 275.82 199.49 255.3"/><polygon class="cls-19" points="200.19 256.87 202.26 242.58 173.49 253.82 176.98 275.82 200.19 256.87"/><polygon class="cls-20" points="200.7 257.29 203.04 242.85 174.07 254.64 176.98 275.82 200.7 257.29"/><polygon class="cls-21" points="201.34 257.89 203.55 243.39 174.64 255.57 176.98 275.82 201.34 257.89"/><path class="cls-22" d="M177,276.1l25-17.72L205,245.19a1,1,0,0,0-.28-.93.82.82,0,0,0-.81-.21l-13.37,5.66s-.79,3.2-2.4,4-10,5-10,5a5.18,5.18,0,0,0-2.58,4.21Z"/><path class="cls-23" d="M188,52.16c-6.08,8.3-9.56,15.94-9.56,22.22a9.56,9.56,0,1,0,19.12,0C197.56,68.1,194,60.33,188,52.16Z"/></svg>