<svg id="Layer_1" data-name="Layer 1" xmlns="http://www.w3.org/2000/svg" viewBox="0 0 216 504"><defs><style>.cls-1{font-size:18px;}.cls-1,.cls-26,.cls-28,.cls-32,.cls-5{fill:#fff;}.cls-1,.cls-25{font-family:TrebuchetMS-Bold, Trebuchet MS;}.cls-1,.cls-26,.cls-29,.cls-30,.cls-6{font-weight:700;}.cls-2{letter-spacing:-0.09em;}.cls-3{letter-spacing:-0.02em;}.cls-4{letter-spacing:-0.06em;}.cls-25,.cls-5{font-size:11px;}.cls-5{font-family:Trebuchet-BoldItalic, Trebuchet MS;}.cls-6{font-style:italic;}.cls-7{letter-spacing:-0.09em;}.cls-31,.cls-32,.cls-8{font-family:TrebuchetMS, Trebuchet MS;}.cls-9{letter-spacing:-0.12em;}.cls-10{letter-spacing:-0.13em;}.cls-11{letter-spacing:-0.14em;}.cls-12,.cls-31{letter-spacing:-0.05em;}.cls-13{letter-spacing:-0.02em;}.cls-14{letter-spacing:-0.1em;}.cls-15{letter-spacing:-0.05em;}.cls-16{fill:#d0d0d0;}.cls-17{fill:#94989b;}.cls-18{fill:#ed4c5c;}.cls-19{fill:#f9f3d9;}.cls-20{fill:#d6eef0;}.cls-21{fill:#89664c;}.cls-22{fill:#dbb471;}.cls-23{fill:#83bf4f;}.cls-24{fill:#699635;}.cls-27{letter-spacing:0.03em;}.cls-30{letter-spacing:-0.11em;}.cls-33{letter-spacing:-0.12em;}.cls-34{letter-spacing:0em;}.cls-35{letter-spacing:-0.11em;}.cls-36{fill:#75d6ff;}.cls-37{fill:#7924a6;}.cls-37,.cls-39,.cls-42,.cls-43,.cls-44,.cls-45{fill-rule:evenodd;}.cls-38{fill:#b86acb;}.cls-39,.cls-40{fill:#fed0ac;}.cls-41,.cls-43{fill:#e0a372;}.cls-42{fill:#ff71d0;}.cls-44{fill:#8f4074;}.cls-45{fill:#6ceda9;}.cls-46{fill:#664e27;}</style></defs><title>Artboard 1</title><text class="cls-1" transform="translate(4.41 26.28)">WH<tspan class="cls-2" x="28.21" y="0">A</tspan><tspan class="cls-3" x="37.91" y="0">T </tspan><tspan class="cls-4" x="53.69" y="0">T</tspan><tspan x="63.63" y="0">O DO?</tspan></text><text class="cls-5" transform="translate(48.17 47.53)"><tspan class="cls-6">Climb to Safety Immediatel<tspan class="cls-7" x="142.61" y="0">y</tspan><tspan x="147.8" y="0">.</tspan></tspan><tspan class="cls-8"><tspan x="-0.01" y="13.2">Flash floods develop quickl</tspan><tspan class="cls-9" x="133.19" y="13.2">y</tspan><tspan x="137.28" y="13.2">. Do </tspan><tspan x="-0.02" y="26.4">not wait until you see rising </tspan><tspan x="-0.03" y="39.6">wate</tspan><tspan class="cls-10" x="24.3" y="39.6">r</tspan><tspan x="27.11" y="39.6">. Get out of low areas </tspan><tspan x="-0.04" y="52.8">subject to flooding. </tspan><tspan x="-0.05" y="66">If driving, do not drive through </tspan><tspan x="-0.06" y="79.2">flooded roadways! If the vehicle </tspan><tspan x="-0.07" y="92.4">stalls or the water rises around </tspan><tspan x="-0.08" y="105.6">your ca</tspan><tspan class="cls-11" x="36.08" y="105.6">r</tspan><tspan x="38.78" y="105.6">, leave the vehicle </tspan><tspan x="-0.09" y="118.8">immediatel</tspan><tspan class="cls-9" x="55.96" y="118.8">y</tspan><tspan x="60.04" y="118.8">. Climb to higher </tspan><tspan x="-0.1" y="132">ground as quickly as possi</tspan><tspan x="126.48" y="132">-</tspan><tspan x="-0.11" y="145.2">ble.</tspan><tspan class="cls-12" x="19.31" y="145.2">W</tspan><tspan x="28.17" y="145.2">ear layered warm, dry </tspan><tspan x="-0.12" y="158.4">clothing and sturdy shoes</tspan></tspan><tspan class="cls-6"><tspan x="-0.12" y="171.6"> </tspan><tspan x="-0.13" y="184.8" xml:space="preserve">Prevent  Damage to</tspan><tspan class="cls-13" x="102.52" y="184.8"> </tspan><tspan class="cls-14" x="105.64" y="184.8">Y</tspan><tspan x="112.08" y="184.8">our </tspan><tspan x="-0.14" y="198">Home.</tspan></tspan><tspan class="cls-8"><tspan x="-0.15" y="211.2">Shut off wate</tspan><tspan class="cls-11" x="66.51" y="211.2">r</tspan><tspan x="69.21" y="211.2">, gas and electrici</tspan><tspan x="157.91" y="211.2">-</tspan><tspan x="-0.16" y="224.4">ty before leaving. </tspan><tspan class="cls-15" x="91.05" y="224.4">P</tspan><tspan x="96.67" y="224.4">ost a note </tspan><tspan x="-0.17" y="237.6">telling when you left and where </tspan><tspan x="-0.18" y="250.8">you are going. Don&apos;t forget about </tspan><tspan x="-0.19" y="264">your pets and be sure to lock </tspan><tspan x="-0.2" y="277.2">your home.(warning public </tspan><tspan x="-0.21" y="290.4">shelters may not accept pets) .</tspan></tspan></text><rect class="cls-16" x="25.73" y="259.45" width="2.08" height="3.96"/><rect class="cls-17" x="27.81" y="259.45" width="1.39" height="3.96"/><rect class="cls-16" x="25.04" y="258.07" width="3.46" height="1.39"/><rect class="cls-17" x="28.5" y="258.07" width="1.39" height="1.39"/><polygon class="cls-18" points="20.77 258.07 7.65 265.57 33.89 265.57 20.77 258.07"/><rect class="cls-19" x="11.37" y="265.57" width="18.8" height="11.61"/><rect class="cls-20" x="18.42" y="269.03" width="4.69" height="4.7"/><path class="cls-21" d="M21.06,273.72v-2.05h2.05v2.05Zm-2.64,0v-2.05h2.06v2.05ZM20.48,269v2.05H18.42V269Zm2.63,0v2.05H21.06V269Zm-5.27-.59v5.87H23.7v-5.87Z"/><rect class="cls-19" x="9.88" y="281.75" width="27.82" height="11.74"/><rect class="cls-20" x="28.47" y="285.27" width="4.69" height="4.7"/><path class="cls-21" d="M31.11,290v-2.06h2V290Zm-2.64,0v-2.06h2.05V290Zm2.05-4.7v2.05H28.47v-2.05Zm2.64,0v2.05h-2v-2.05Zm-5.27-.59v5.87h5.86v-5.87Z"/><rect class="cls-21" x="17.23" y="286.3" width="5.13" height="7.19"/><rect class="cls-22" x="16.71" y="285.27" width="6.16" height="1.03"/><path class="cls-19" d="M21.46,289a.39.39,0,0,1,.38.39.38.38,0,0,1-.38.38.39.39,0,0,1-.39-.38A.4.4,0,0,1,21.46,289Z"/><rect class="cls-23" x="7.22" y="293.49" width="36.56" height="1.14"/><polygon class="cls-18" points="36.25 277.18 11.32 277.18 7.22 281.75 40.35 281.75 36.25 277.18"/><path class="cls-23" d="M43.78,291.09a1.28,1.28,0,0,0-1.28-1.29,1.15,1.15,0,0,0-.41.08.95.95,0,0,0-1.47-.34.78.78,0,0,0,0-.22,1,1,0,0,0-1-1,1,1,0,0,0-.95.8.6.6,0,0,0-.41-.16.65.65,0,0,0-.64.65v3.84h5.13a1,1,0,0,0,.69-1.63A1.22,1.22,0,0,0,43.78,291.09Z"/><path class="cls-24" d="M43.78,292.53a1,1,0,0,0-.27-.67,1.22,1.22,0,0,0,.27-.77,1.28,1.28,0,0,0-1.28-1.29,1.15,1.15,0,0,0-.41.08,1,1,0,0,0-.48-.47,1,1,0,0,0-.57.88,1.09,1.09,0,0,0,0,.26.63.63,0,0,0-.92.58.66.66,0,0,0,.33.56,1.14,1.14,0,0,0-.23.68,1.12,1.12,0,0,0,1.1,1.12h1.46A1,1,0,0,0,43.78,292.53Z"/><path class="cls-24" d="M40,292.67c0,.35-.29-.14-.64-.14s-.64.49-.64.14a.64.64,0,0,1,1.28,0Z"/><path class="cls-24" d="M38.59,291.57c0,.18-.14,0-.32,0s-.32.18-.32,0a.32.32,0,0,1,.64,0Z"/><path class="cls-23" d="M39.14,290.61c0,.17-.15-.06-.32-.06s-.32.23-.32.06a.32.32,0,0,1,.32-.32A.32.32,0,0,1,39.14,290.61Z"/><path class="cls-23" d="M41.81,292.21c0,.24-.19-.12-.43-.12s-.44.36-.44.12a.44.44,0,0,1,.44-.44A.44.44,0,0,1,41.81,292.21Z"/><path class="cls-23" d="M43.05,291c0,.36-.28-.2-.64-.2s-.64.56-.64.2a.64.64,0,0,1,1.28,0Z"/><path class="cls-23" d="M43.07,292.53c0,.18-.14,0-.32,0s-.32.18-.32,0a.32.32,0,0,1,.32-.32A.32.32,0,0,1,43.07,292.53Z"/><path class="cls-23" d="M40.21,290c0,.24-.19-.12-.43-.12s-.44.36-.44.12a.44.44,0,0,1,.44-.44A.44.44,0,0,1,40.21,290Z"/><path class="cls-23" d="M13.31,291.09A1.29,1.29,0,0,0,12,289.8a1.15,1.15,0,0,0-.41.08.94.94,0,0,0-1.46-.34,1.5,1.5,0,0,0,0-.22,1,1,0,0,0-1.9-.16.6.6,0,0,0-.41-.16.64.64,0,0,0-.64.64v3.85h5.13a1,1,0,0,0,1-1,1,1,0,0,0-.27-.67A1.28,1.28,0,0,0,13.31,291.09Z"/><path class="cls-24" d="M13.31,292.53a1,1,0,0,0-.27-.67,1.28,1.28,0,0,0-1-2.06,1.15,1.15,0,0,0-.41.08,1,1,0,0,0-.48-.47,1,1,0,0,0-.57.88,1.09,1.09,0,0,0,0,.26.64.64,0,0,0-.58,1.14,1.08,1.08,0,0,0-.24.68,1.12,1.12,0,0,0,1.1,1.12h1.46A1,1,0,0,0,13.31,292.53Z"/><path class="cls-24" d="M9.53,292.67c0,.35-.28-.14-.64-.14s-.64.49-.64.14a.64.64,0,0,1,1.28,0Z"/><path class="cls-24" d="M8.11,291.57c0,.18-.14,0-.32,0s-.32.18-.32,0a.32.32,0,0,1,.32-.32A.32.32,0,0,1,8.11,291.57Z"/><path class="cls-23" d="M8.66,290.61c0,.17-.14-.06-.32-.06s-.32.23-.32.06a.32.32,0,0,1,.64,0Z"/><path class="cls-23" d="M11.34,292.21c0,.24-.2-.12-.44-.12s-.43.36-.43.12a.44.44,0,0,1,.43-.44A.44.44,0,0,1,11.34,292.21Z"/><path class="cls-23" d="M12.58,291c0,.36-.29-.2-.65-.2s-.64.56-.64.2a.65.65,0,0,1,1.29,0Z"/><path class="cls-23" d="M12.6,292.53c0,.18-.14,0-.32,0s-.32.18-.32,0a.32.32,0,0,1,.64,0Z"/><path class="cls-23" d="M9.73,290c0,.24-.19-.12-.43-.12s-.43.36-.43.12a.43.43,0,1,1,.86,0Z"/><text class="cls-25" transform="translate(24.94 362.94)"><tspan class="cls-26">If ad<tspan class="cls-27" x="22.69" y="0">v</tspan><tspan x="28.83" y="0">ised to evacuate then do so </tspan></tspan><tspan class="cls-28"><tspan class="cls-29" x="-12.78" y="13.2">immediatel</tspan><tspan class="cls-30" x="45.19" y="13.2">y</tspan><tspan class="cls-29" x="49.84" y="13.2">. </tspan><tspan class="cls-31" x="57.19" y="13.2">W</tspan><tspan class="cls-8" x="66.06" y="13.2">ear protective clothing. </tspan></tspan><tspan class="cls-32"><tspan x="-8.5" y="26.4">Lock your home.</tspan><tspan class="cls-33" x="73.29" y="26.4">T</tspan><tspan class="cls-34" x="78.31" y="26.4">ell someone you left </tspan><tspan x="-12.7" y="39.6">and where you are going. Choose a safe </tspan><tspan x="11.56" y="52.8">route away from fire hazards.</tspan></tspan><tspan class="cls-26"><tspan x="2.86" y="79.2">Contact 911 for any emergenc</tspan><tspan class="cls-35" x="159.09" y="79.2">y</tspan><tspan x="163.75" y="79.2">.</tspan></tspan><tspan class="cls-29"><tspan x="-16.42" y="92.4"> </tspan></tspan></text><path class="cls-36" d="M44.66,143.11H4.34v-6.05c25.53-3.91,40.32-16.8,40.32-16.8Z"/><path class="cls-37" d="M15.71,142.34c-1.67-.09-8.93-.3-8.93-1.59,0-.52,2.45-1.62,5.42-2.42,13.4-3.65,26.55-3.86,26.55-3,0,.42-.51,1.07,0,1.53a6.54,6.54,0,0,0,3.38,1.43C42.13,139.72,30.85,143.11,15.71,142.34Z"/><path class="cls-38" d="M38.75,136.84a.76.76,0,0,1-.18-.84c-3.75.49-24.34,3.21-30.87,4-.58.31-.92.58-.92.77s.26.45.69.63l32.66-3.65A4.82,4.82,0,0,1,38.75,136.84Z"/><path class="cls-39" d="M39.88,118.8c-1.5.5-2.78-.19-3.63.06-.17-.48-1.45-1.24-3.06-1.7a4.3,4.3,0,0,0-2.39-1.41c-1.36-.2-1.9.11-1.73-1.63l-2.2-.45c-.5,1.59-1.93,1.3-2.84,1.23a3.39,3.39,0,0,0-3.88,2.6,9,9,0,0,0-1.81,2.1,4.3,4.3,0,0,0-.91,2.87c0,1.16,0,3.15,0,3.15l1.64-.12.34-3.8a4.31,4.31,0,0,0,2.51-2.24c-.54,3.05.49,2.49-.18,5,0,0,6.68.87,6.68.86.2-4,1.7-2.51,2.33-6.09a40.12,40.12,0,0,0,4.68,1.56c1.77.42,5.21-.3,5.21-.3Z"/><path class="cls-40" d="M43.29,119.3c-.22-1.23-1.18-1.35-1.93-1.3a.35.35,0,0,0-.46-.35l-.94.18a.7.7,0,0,0-.56.77l.18,1.06c.26,1.57.26,1.57,2.45,1.24A1.3,1.3,0,0,0,43.29,119.3Z"/><path class="cls-41" d="M41.12,118.09a.69.69,0,0,1-.23.22,1.35,1.35,0,0,1-.33.09l-.56.09a.11.11,0,0,0,0,.21l.57-.1a1.41,1.41,0,0,0,.38-.11,1,1,0,0,0,.32-.28C41.39,118.1,41.21,118,41.12,118.09Z"/><path class="cls-40" d="M20.06,125.92a.68.68,0,0,0-.71-.55l-1.05.07c-1.57.09-1.57.09-1.43,2a1.25,1.25,0,0,0,1.46,1.2,1.37,1.37,0,0,0,1.44-1.52s.41-.1.39-.37Z"/><path class="cls-42" d="M28.63,125a2.36,2.36,0,0,0,.4.67c2.39.38,5.06,1.09,5.5,2.14.3.72-.88,3.18-1.06,4.16-.53,3-5-2-5.64-1.45-.44.35.49,1.53.2,1.79-.77.69-4.41,1.79-5.78.21-.46-.53-.13-1.57-.43-1.85-2.35-2.13-.79-3.62-.08-6.38C21.74,124.24,22.91,124.72,28.63,125Z"/><path class="cls-43" d="M18.79,120.81l.62.89-.16,1.59A13.44,13.44,0,0,0,18.79,120.81Z"/><path class="cls-43" d="M28.88,119.69a.3.3,0,1,1,0,.59.3.3,0,1,1,0-.59Z"/><ellipse class="cls-41" cx="24.01" cy="119.31" rx="0.34" ry="0.29"/><path class="cls-43" d="M21.92,118.33a2.46,2.46,0,0,0,1.8,2A7.2,7.2,0,0,1,21.92,118.33Z"/><path class="cls-43" d="M33.32,119.88a2.77,2.77,0,0,0,2.7-.52A8,8,0,0,1,33.32,119.88Z"/><path class="cls-44" d="M27.57,131a2.28,2.28,0,0,1-2.38,2.16c-1.31,0-2.67.06-2.67-1.14s.6-3.12,2.67-3.19A2.26,2.26,0,0,1,27.57,131Z"/><path class="cls-44" d="M33.51,130.3c0,1.2-.78,3.48-1.56,1.44-.42-1.11.75-4.06,1.91-4.06C35.36,127.68,33.51,129.11,33.51,130.3Z"/><path class="cls-39" d="M27,131.64c1.12-2.48-3-3.7-3.71-.9a26.23,26.23,0,0,0-.75,5.6c-.08.8-.76,1.33-.63,1.64.41,1,.41,2.48.78,2.75a3.82,3.82,0,0,0,2.7-.47c.16-.81-1.28-1.77-.89-3.61C24.84,135.07,26.23,133.32,27,131.64Z"/><path class="cls-39" d="M37.46,130c0-.56-1.73-1.77-3.65-2.27-1.09.25-1.72,2.71-1.44,3.09a4,4,0,0,0,1.87.94c-.94,1.12.19,2.14-.21,4.07-.26,1.26-.22,2.33.71,3,.43.31,2.92-.29,2.73-.76-.4-1-1.53-1.77-1.57-2.56C35.8,133.6,37.54,132.54,37.46,130Z"/><path class="cls-45" d="M20.57,128.51a2.8,2.8,0,0,0,1.25,2.11s.07-2.53,2-3.29C23.86,127.33,21.42,127.14,20.57,128.51Z"/><path class="cls-45" d="M21.44,125.23a4.49,4.49,0,0,0-.76,2.24A4.26,4.26,0,0,1,24.79,126S22.94,124.6,21.44,125.23Z"/><path class="cls-45" d="M29.6,125.71a5.65,5.65,0,0,1,2.15.49s-2.16-.29-3.24.53C28.51,126.73,28.58,125.62,29.6,125.71Z"/><path class="cls-45" d="M32.3,126.37a5.08,5.08,0,0,1,1.64.75s-2-.48-3.07.35C30.87,127.47,31.29,126.29,32.3,126.37Z"/><path class="cls-45" d="M28.79,125.29c-2.34.51-6.06-.78-7.18-.59-.22,0,0-.89.22-.89,2.53,0,4.43.8,6.71.69C28.74,124.49,29,125.23,28.79,125.29Z"/><path class="cls-22" d="M23.11,108.07l.45,1.11,10,1.16.56-1.07c.46-4-.27-5.82-4.7-6.37S23.58,104,23.11,108.07Z"/><path class="cls-40" d="M33.67,109.22a2.41,2.41,0,0,1-.22.56,1,1,0,0,1-.39.3,7.23,7.23,0,0,0,.16-1.07c.18-3.72-.24-2-4.31-2.44s-4.08-2.27-4.76,1.39a6.62,6.62,0,0,0-.09,1.08.93.93,0,0,1-.31-.39,1.82,1.82,0,0,1-.08-.59c-.38-.14-.88-.11-1,1a1.14,1.14,0,0,0,.95,1.45c0,2.34,2.95,4.24,4.33,4.4s4.66-1,5.22-3.29c.86,0,1.18-.5,1.26-1.19C34.55,109.31,34.06,109.17,33.67,109.22Z"/><circle class="cls-46" cx="26.44" cy="109.61" r="0.86"/><circle class="cls-46" cx="30.62" cy="110.09" r="0.86"/><path class="cls-46" d="M29.59,112.61a2.1,2.1,0,0,1-2.73-.32c-.1-.1-.21,0-.15.18a1.69,1.69,0,0,0,3,.34C29.78,112.69,29.71,112.54,29.59,112.61Z"/></svg>