<svg id="Layer_1" data-name="Layer 1" xmlns="http://www.w3.org/2000/svg" viewBox="0 0 216 504"><defs><style>.cls-1{font-size:18px;font-family:TrebuchetMS-Bold, Trebuchet MS;}.cls-1,.cls-21,.cls-5{fill:#fff;}.cls-1,.cls-21,.cls-6{font-weight:700;}.cls-2{letter-spacing:-0.09em;}.cls-3{letter-spacing:-0.02em;}.cls-4{letter-spacing:-0.06em;}.cls-21,.cls-5{font-size:11px;font-family:Trebuchet-BoldItalic, Trebuchet MS;}.cls-21,.cls-6{font-style:italic;}.cls-7{font-family:TrebuchetMS, Trebuchet MS;}.cls-8{letter-spacing:-0.02em;}.cls-9{letter-spacing:-0.13em;}.cls-10{letter-spacing:-0.14em;}.cls-11{letter-spacing:-0.04em;}.cls-12{fill:#d0d0d0;}.cls-13{fill:#94989b;}.cls-14{fill:#ed4c5c;}.cls-15{fill:#f9f3d9;}.cls-16{fill:#d6eef0;}.cls-17{fill:#89664c;}.cls-18{fill:#dbb471;}.cls-19{fill:#83bf4f;}.cls-20{fill:#699635;}.cls-22{letter-spacing:-0.11em;}.cls-23{fill:#428bc1;}.cls-24{fill:#fed0ac;}.cls-25{fill:#2e6c93;}.cls-26{fill:#42ade2;}.cls-27{fill:#664e27;}</style></defs><title>Artboard 1</title><text class="cls-1" transform="translate(4.41 26.28)">WH<tspan class="cls-2" x="28.21" y="0">A</tspan><tspan class="cls-3" x="37.91" y="0">T </tspan><tspan class="cls-4" x="53.69" y="0">T</tspan><tspan x="63.63" y="0">O DO?</tspan></text><text class="cls-5" transform="translate(48.17 47.53)"><tspan class="cls-6">Seek shelter</tspan><tspan class="cls-7"><tspan x="-0.01" y="13.2">Underground if possible or in the </tspan><tspan x="-0.02" y="26.4">middle of a tall building.</tspan><tspan class="cls-8" x="122.74" y="26.4"> </tspan><tspan x="125.85" y="26.4">The </tspan><tspan x="-0.03" y="39.6">thicker the walls and further </tspan><tspan x="-0.04" y="52.8">distance away from the blast the </tspan><tspan x="-0.05" y="66">bette</tspan><tspan class="cls-9" x="26.8" y="66">r</tspan><tspan x="29.61" y="66">. Once inside the shelter </tspan><tspan x="-0.06" y="79.2" xml:space="preserve">protect electronics from possible  </tspan><tspan x="-0.07" y="92.4">EMPs by covering them with </tspan><tspan x="-0.08" y="105.6">plastic zip lock bags and alumi</tspan><tspan x="150.77" y="105.6">-</tspan><tspan x="-0.09" y="118.8">num foil(conductor). Continue to </tspan><tspan x="-0.1" y="132">listen for official information </tspan><tspan x="-0.11" y="145.2">through radios or the internet. </tspan><tspan x="-0.12" y="158.4">Stay inside for at least 24 hours </tspan><tspan x="-0.12" y="171.6">unless told so otherwise by </tspan><tspan x="-0.13" y="184.8">authorities.</tspan></tspan><tspan class="cls-6"><tspan x="-0.15" y="211.2">If unable to take immediate </tspan><tspan x="-0.16" y="224.4">shelter</tspan></tspan><tspan class="cls-7"><tspan x="-0.17" y="237.6">Hide behind whatever available </tspan><tspan x="-0.18" y="250.8">cove</tspan><tspan class="cls-10" x="22.55" y="250.8">r</tspan><tspan x="25.26" y="250.8">, lay down, and cover your </tspan><tspan x="-0.19" y="264">face. Seek shelter after the blast </tspan><tspan x="-0.2" y="277.2">and clean yourself with soap and </tspan><tspan x="-0.21" y="290.4">wate</tspan><tspan class="cls-10" x="24.11" y="290.4">r</tspan><tspan x="26.82" y="290.4">, not conditione</tspan><tspan class="cls-10" x="105.8" y="290.4">r</tspan><tspan x="108.5" y="290.4">, but do </tspan><tspan x="-0.22" y="303.6">not scratch or scrub your skin. </tspan><tspan class="cls-11" x="-0.23" y="316.8">R</tspan><tspan x="5.73" y="316.8">emove your outer layer of </tspan><tspan x="-0.24" y="330">clothes, preferably into a tied </tspan><tspan x="-0.25" y="343.2">plastic bag and thrown outside </tspan><tspan x="-0.26" y="356.4">to remove as much radiation as </tspan><tspan x="-0.27" y="369.6">possible. </tspan></tspan></text><rect class="cls-12" x="23.73" y="112.45" width="2.08" height="3.96"/><rect class="cls-13" x="25.81" y="112.45" width="1.39" height="3.96"/><rect class="cls-12" x="23.04" y="111.07" width="3.46" height="1.39"/><rect class="cls-13" x="26.5" y="111.07" width="1.39" height="1.39"/><polygon class="cls-14" points="18.77 111.07 5.65 118.57 31.89 118.57 18.77 111.07"/><rect class="cls-15" x="9.37" y="118.57" width="18.8" height="11.61"/><rect class="cls-16" x="16.42" y="122.03" width="4.69" height="4.7"/><path class="cls-17" d="M19.06,126.72v-2h2.05v2Zm-2.64,0v-2h2.06v2ZM18.48,122v2H16.42v-2Zm2.63,0v2H19.06v-2Zm-5.27-.59v5.87H21.7v-5.87Z"/><rect class="cls-15" x="7.88" y="134.75" width="27.82" height="11.74"/><rect class="cls-16" x="26.47" y="138.27" width="4.69" height="4.7"/><path class="cls-17" d="M29.11,143v-2.06h2.05V143Zm-2.64,0v-2.06h2.05V143Zm2.05-4.7v2H26.47v-2Zm2.64,0v2H29.11v-2Zm-5.27-.59v5.87h5.86v-5.87Z"/><rect class="cls-17" x="15.23" y="139.3" width="5.13" height="7.19"/><rect class="cls-18" x="14.71" y="138.27" width="6.16" height="1.03"/><circle class="cls-15" cx="19.46" cy="142.38" r="0.39"/><rect class="cls-19" x="5.22" y="146.49" width="36.56" height="1.14"/><polygon class="cls-14" points="34.25 130.18 9.32 130.18 5.22 134.75 38.35 134.75 34.25 130.18"/><path class="cls-19" d="M41.78,144.09a1.28,1.28,0,0,0-1.28-1.29,1.15,1.15,0,0,0-.41.08.95.95,0,0,0-1.47-.34.78.78,0,0,0,0-.22,1,1,0,0,0-1-1,1,1,0,0,0-.95.8.6.6,0,0,0-.41-.16.65.65,0,0,0-.64.65v3.84h5.13a1,1,0,0,0,.69-1.63A1.22,1.22,0,0,0,41.78,144.09Z"/><path class="cls-20" d="M41.78,145.53a1,1,0,0,0-.27-.67,1.22,1.22,0,0,0,.27-.77,1.28,1.28,0,0,0-1.28-1.29,1.15,1.15,0,0,0-.41.08,1,1,0,0,0-.48-.47,1,1,0,0,0-.57.88,1.09,1.09,0,0,0,0,.26.63.63,0,0,0-.92.58.66.66,0,0,0,.33.56,1.14,1.14,0,0,0-.23.68,1.12,1.12,0,0,0,1.1,1.12h1.46A1,1,0,0,0,41.78,145.53Z"/><path class="cls-20" d="M38,145.67c0,.35-.29-.14-.64-.14s-.64.49-.64.14a.64.64,0,0,1,1.28,0Z"/><path class="cls-20" d="M36.59,144.57c0,.18-.14,0-.32,0s-.32.18-.32,0a.32.32,0,0,1,.64,0Z"/><path class="cls-19" d="M37.14,143.61c0,.17-.15-.06-.32-.06s-.32.23-.32.06a.32.32,0,0,1,.32-.32A.32.32,0,0,1,37.14,143.61Z"/><path class="cls-19" d="M39.81,145.21c0,.24-.19-.12-.43-.12s-.44.36-.44.12a.44.44,0,0,1,.44-.44A.44.44,0,0,1,39.81,145.21Z"/><path class="cls-19" d="M41.05,144c0,.36-.28-.2-.64-.2s-.64.56-.64.2a.64.64,0,1,1,1.28,0Z"/><path class="cls-19" d="M41.07,145.53c0,.18-.14,0-.32,0s-.32.18-.32,0a.32.32,0,0,1,.32-.32A.32.32,0,0,1,41.07,145.53Z"/><path class="cls-19" d="M38.21,143c0,.24-.19-.12-.43-.12s-.44.36-.44.12a.44.44,0,0,1,.44-.44A.44.44,0,0,1,38.21,143Z"/><path class="cls-19" d="M11.31,144.09A1.29,1.29,0,0,0,10,142.8a1.15,1.15,0,0,0-.41.08.94.94,0,0,0-1.46-.34,1.5,1.5,0,0,0,0-.22,1,1,0,0,0-1.9-.16.6.6,0,0,0-.41-.16.64.64,0,0,0-.64.64v3.85h5.13a1,1,0,0,0,1-1,1,1,0,0,0-.27-.67A1.28,1.28,0,0,0,11.31,144.09Z"/><path class="cls-20" d="M11.31,145.53a1,1,0,0,0-.27-.67,1.28,1.28,0,0,0-1-2.06,1.15,1.15,0,0,0-.41.08,1,1,0,0,0-.48-.47,1,1,0,0,0-.57.88,1.09,1.09,0,0,0,0,.26A.64.64,0,0,0,8,144.69a1.08,1.08,0,0,0-.24.68,1.12,1.12,0,0,0,1.1,1.12h1.46A1,1,0,0,0,11.31,145.53Z"/><path class="cls-20" d="M7.53,145.67c0,.35-.28-.14-.64-.14s-.64.49-.64.14a.64.64,0,0,1,1.28,0Z"/><path class="cls-20" d="M6.11,144.57c0,.18-.14,0-.32,0s-.32.18-.32,0a.32.32,0,0,1,.32-.32A.32.32,0,0,1,6.11,144.57Z"/><path class="cls-19" d="M6.66,143.61c0,.17-.14-.06-.32-.06s-.32.23-.32.06a.32.32,0,1,1,.64,0Z"/><path class="cls-19" d="M9.34,145.21c0,.24-.2-.12-.44-.12s-.43.36-.43.12a.44.44,0,0,1,.43-.44A.44.44,0,0,1,9.34,145.21Z"/><path class="cls-19" d="M10.58,144c0,.36-.29-.2-.65-.2s-.64.56-.64.2a.65.65,0,0,1,1.29,0Z"/><path class="cls-19" d="M10.6,145.53c0,.18-.14,0-.32,0s-.32.18-.32,0a.32.32,0,0,1,.64,0Z"/><path class="cls-19" d="M7.73,143c0,.24-.19-.12-.43-.12s-.43.36-.43.12a.43.43,0,1,1,.86,0Z"/><text class="cls-21"><tspan x="12.77" y="441.03">Drink bottled, or deep welled wate</tspan><tspan class="cls-22" x="196.06" y="441.03">r</tspan><tspan x="199.72" y="441.03">. </tspan><tspan x="9.1" y="454.23">Otherwise try to filter/strain water if </tspan><tspan x="10.92" y="467.43">from outside sources such as lakes or </tspan><tspan x="85.47" y="480.63">streams.</tspan></text><path class="cls-23" d="M33.48,332.07c-4.64-2.45-7.48-.26-7.48-.26s-2.84-2.19-7.48.26c-4.13,2.19-9.51,7.18-9.12,9.4,0,0,12.34,3.89,16.6,3.89s16.6-3.89,16.6-3.89C43,339.25,37.61,334.26,33.48,332.07Z"/><path class="cls-24" d="M26.72,344.54c4.38-3,6.14-3,6.22-3a17.78,17.78,0,0,1,1.12,3.71h0c-.37,1-6.53,1.47-7.61.44A.77.77,0,0,1,26.72,344.54Z"/><path class="cls-23" d="M38.92,337.65c1.61-.34,5,1.59,3.64,4.53-1.18,2.57-8.33,3.08-8.5,3.09a17.78,17.78,0,0,0-1.12-3.71C34.15,341.1,37.58,337.94,38.92,337.65Z"/><path class="cls-24" d="M25.28,344.54c-4.38-3-6.14-3-6.22-3a17.78,17.78,0,0,0-1.12,3.71h0c.37,1,6.53,1.47,7.61.44A.77.77,0,0,0,25.28,344.54Z"/><path class="cls-23" d="M13.08,337.65c-1.61-.34-5,1.59-3.64,4.53,1.18,2.57,8.33,3.08,8.5,3.09a17.78,17.78,0,0,1,1.12-3.71C17.85,341.1,14.43,337.94,13.08,337.65Z"/><path class="cls-25" d="M32.2,341.38a24.81,24.81,0,0,1,1.86,3.89,8.54,8.54,0,0,0-.46-3.43,43.35,43.35,0,0,1,5.32-4.19C36.51,338.39,32.2,341.38,32.2,341.38Z"/><path class="cls-25" d="M19.8,341.38a24.81,24.81,0,0,0-1.86,3.89,8.54,8.54,0,0,1,.46-3.43,43.35,43.35,0,0,0-5.32-4.19C15.49,338.39,19.8,341.38,19.8,341.38Z"/><path class="cls-18" d="M26,319.27c6.65,0,10.74,3.73,10.74,8.37v4.59c0,3.66-2.89,3.66-2.89,3.66H17.74s-2.48,0-2.48-3.66v-4.59C15.26,323,19.57,319.27,26,319.27Z"/><path class="cls-24" d="M35.73,333.05s-.35-2-.4-2.64c-.19-2.41-2.93,1.4-9.33,1.4s-9.14-3.81-9.33-1.4c-.05.67-.4,2.64-.4,2.64a1.49,1.49,0,1,0,0,3c0,3.69,5.79,5.35,9.73,5.35s9.73-1.66,9.73-5.35A1.49,1.49,0,1,0,35.73,333.05Z"/><polygon class="cls-26" points="28.23 312.52 30.24 318.42 33.02 313.45 28.23 312.52"/><polygon class="cls-26" points="37.93 316.04 35.28 321.06 40.83 320.34 37.93 316.04"/><polygon class="cls-26" points="23.96 312.52 21.95 318.42 18.98 313.45 23.96 312.52"/><polygon class="cls-26" points="14.07 316.04 16.72 321.06 11.17 320.34 14.07 316.04"/><path class="cls-27" d="M27.57,339.4a2.4,2.4,0,0,1-3.14,0c-.12-.09-.23.07-.15.22a1.93,1.93,0,0,0,3.44,0C27.8,339.47,27.69,339.31,27.57,339.4Z"/><path class="cls-27" d="M27.27,335.74c1.36,2.55,4.1,2.55,5.47,0,.06-.13-.11-.19-.33-.34a4.18,4.18,0,0,1-4.82,0C27.38,335.55,27.2,335.61,27.27,335.74Z"/><path class="cls-27" d="M19.26,335.74c1.37,2.55,4.11,2.55,5.47,0,.07-.13-.11-.19-.32-.34a4.18,4.18,0,0,1-4.82,0C19.37,335.55,19.2,335.61,19.26,335.74Z"/></svg>